<?xml version="1.0" encoding="UTF-8"?>
<svg version="1.1" xmlns="http://www.w3.org/2000/svg" width="4647" height="4647">
<path d="M0 0 C6.09229839 0.01139318 12.18442185 0.00459062 18.27671432 -0.0068779 C62.91671925 -0.07798677 107.50906349 1.16229159 152.06152344 4.01074219 C153.374776 4.09311127 154.68802856 4.17548035 156.04107666 4.26034546 C207.96773837 7.53124003 259.7086544 12.61107208 311.31152344 19.26074219 C312.37193848 19.39675842 313.43235352 19.53277466 314.52490234 19.6729126 C394.10863082 29.91259877 473.26613619 44.59435864 551.24194336 63.51647949 C554.37039521 64.27501647 557.50005262 65.02842234 560.62988281 65.78125 C611.70249193 78.09605041 662.22220287 92.42521007 712.31152344 108.26074219 C713.30418213 108.57422607 714.29684082 108.88770996 715.31958008 109.21069336 C812.82363573 140.05002935 908.10763178 177.94940679 1019.10693359 230.71728516 C1022.38273524 232.2950406 1025.66478509 233.85914358 1028.94824219 235.42089844 C1056.26596714 248.45205584 1083.28121122 262.16743197 1109.74951172 276.85107422 C1112.5295838 278.38072318 1115.32295825 279.88367007 1118.12011719 281.38183594 C1129.458629 287.45862548 1140.65623516 293.71952281 1151.74169922 300.24731445 C1157.46785345 303.61638458 1163.2275195 306.89531495 1169.06152344 310.07324219 C1178.23968563 315.09376624 1187.14330273 320.56345007 1196.06738281 326.01733398 C1197.26982761 326.7521636 1198.47230113 327.48694622 1199.67480469 328.22167969 C1200.25811554 328.5781105 1200.84142639 328.93454132 1201.44241333 329.30177307 C1205.95077004 332.0518152 1210.49427449 334.73511171 1215.06152344 337.38574219 C1225.97335996 343.74656103 1236.63581274 350.51388012 1247.31152344 357.26074219 C1248.78854736 358.19249268 1248.78854736 358.19249268 1250.29541016 359.14306641 C1266.83393801 369.59291922 1283.12258729 380.40074502 1299.37367249 391.28961182 C1303.64734254 394.15180306 1307.9300869 396.99972395 1312.22167969 399.83496094 C1321.23846135 405.79836392 1330.20654252 411.76984706 1338.86230469 418.24951172 C1343.78720745 421.92524492 1348.84663695 425.38067167 1353.93652344 428.82324219 C1360.55335536 433.30629035 1366.94946018 437.95877916 1373.23730469 442.88964844 C1376.37181174 445.30724155 1379.57465601 447.60902209 1382.81152344 449.88574219 C1390.74016629 455.47930647 1398.41702695 461.39777456 1406.12011719 467.29589844 C1410.63898997 470.75453266 1415.18700619 474.17184173 1419.74902344 477.57324219 C1430.24502571 485.41672571 1440.48439653 493.57688661 1450.7019043 501.77807617 C1454.34231832 504.69729836 1458.00254612 507.58845033 1461.68334961 510.45654297 C1467.99391505 515.37598947 1474.14450701 520.44839884 1480.22949219 525.64355469 C1483.05835357 528.05570743 1485.92727466 530.41494217 1488.81152344 532.76074219 C1493.4140081 536.50695063 1497.94874754 540.32597006 1502.46899414 544.17041016 C1505.94395367 547.12033123 1509.45605417 550.01738625 1512.99902344 552.88574219 C1517.39810176 556.46357434 1521.60702721 560.20632739 1525.79589844 564.02636719 C1528.32482639 566.27255785 1530.92202258 568.39605436 1533.56152344 570.51074219 C1539.32386678 575.16965808 1544.6964435 580.19401934 1550.09667969 585.26074219 C1553.09194044 588.06842095 1556.15708143 590.78126661 1559.26464844 593.46386719 C1562.47643868 596.2833777 1565.61164766 599.18628816 1568.75610352 602.08032227 C1571.85877032 604.93427052 1574.9803598 607.76434473 1578.12402344 610.57324219 C1583.61254953 615.50064101 1588.99531032 620.538681 1594.37792969 625.58105469 C1596.96127653 628.00106073 1599.55230588 630.4123109 1602.15136719 632.81542969 C1608.82173549 638.99195067 1615.39872472 645.22877733 1621.74951172 651.7355957 C1624.37937383 654.41149574 1627.0712166 656.94128577 1629.92480469 659.37841797 C1634.68380339 663.525638 1639.14011835 667.94541077 1643.59667969 672.41308594 C1644.45660019 673.27204971 1645.31652069 674.13101349 1646.20249939 675.01600647 C1648.00968205 676.82251233 1649.81561736 678.63026681 1651.62036133 680.43920898 C1654.36590737 683.19011029 1657.11674889 685.9356344 1659.86816406 688.68066406 C1661.63215663 690.4453175 1663.39583894 692.21028116 1665.15917969 693.97558594 C1665.97290543 694.78728745 1666.78663116 695.59898895 1667.62501526 696.43528748 C1671.85578943 700.68328105 1675.91741347 705.01245811 1679.8290863 709.55592346 C1681.55714008 711.54320398 1683.36865506 713.41740514 1685.24902344 715.26074219 C1685.91675781 715.92074219 1686.58449219 716.58074219 1687.27246094 717.26074219 C1687.94535156 717.92074219 1688.61824219 718.58074219 1689.31152344 719.26074219 C1693.9793736 723.83916993 1698.47591135 728.47275538 1702.71972656 733.45019531 C1704.3483005 735.30257328 1706.05223315 737.03255538 1707.81152344 738.76074219 C1710.17511316 741.08511306 1712.40038301 743.46588005 1714.56152344 745.97949219 C1718.20825355 750.17419656 1721.98954502 754.22599383 1725.81152344 758.26074219 C1730.21019339 762.90428655 1734.5199151 767.59965114 1738.71289062 772.43017578 C1740.82750708 774.85158601 1743.00517115 777.21194669 1745.18652344 779.57324219 C1748.49489257 783.19598124 1751.67164701 786.8776711 1754.74902344 790.69824219 C1757.97097419 794.69300652 1761.31830326 798.50605886 1764.81152344 802.26074219 C1769.02178118 806.79062873 1772.98790374 811.46366611 1776.86621094 816.28027344 C1779.78156652 819.83365413 1782.78979092 823.29784281 1785.81152344 826.76074219 C1790.25497325 831.86087827 1794.62042843 837.00722028 1798.87792969 842.26464844 C1800.77057028 844.59475331 1802.67441108 846.91349101 1804.58886719 849.22558594 C1810.548701 856.42507174 1816.45781152 863.6515283 1822.19995117 871.02612305 C1825.65168537 875.45021222 1829.19140276 879.7965787 1832.74902344 884.13574219 C1837.56375352 890.02269579 1842.19466845 896.01900285 1846.72583008 902.1262207 C1850.47186199 907.16841512 1854.31164662 912.12958184 1858.18652344 917.07324219 C1869.41703888 931.4372789 1880.05714163 946.23909576 1890.70703125 961.03564453 C1892.30790807 963.25572842 1893.91427774 965.47172768 1895.52246094 967.68652344 C1903.57952479 978.78986314 1911.49380297 989.98762556 1919.31152344 1001.26074219 C1919.81554688 1001.98712891 1920.31957031 1002.71351563 1920.83886719 1003.46191406 C1935.5939723 1024.77266933 1950.05031848 1046.34487865 1963.99365234 1068.19628906 C1965.4952449 1070.54854298 1967.00323287 1072.8966511 1968.51074219 1075.24511719 C1998.57264419 1122.17548954 2026.7282554 1170.36628257 2053.15917969 1219.42871094 C2055.21039675 1223.23378487 2057.27982451 1227.02777809 2059.37011719 1230.81152344 C2065.14344225 1241.27380552 2070.66498749 1251.82375722 2075.96337891 1262.53491211 C2078.88416247 1268.43398247 2081.88708114 1274.27320636 2084.99902344 1280.07324219 C2127.29412934 1359.44528331 2161.49866598 1444.10930364 2207.31152344 1571.26074219 C2207.56915466 1572.01643494 2207.82678589 1572.77212769 2208.09222412 1573.55072021 C2211.90929241 1584.76216935 2215.63779918 1596.00156772 2219.31152344 1607.26074219 C2219.56442139 1608.0342804 2219.81731934 1608.8078186 2220.07788086 1609.60479736 C2235.12854996 1655.67582993 2248.27669821 1702.31668079 2260.31152344 1749.26074219 C2260.5605542 1750.23045959 2260.80958496 1751.200177 2261.06616211 1752.19927979 C2286.78248105 1852.5252686 2304.89018079 1954.79385408 2329.43652344 2219.38574219 C2329.49457657 2220.64615829 2329.49457657 2220.64615829 2329.55380249 2221.93203735 C2331.05964877 2255.15792608 2331.51961523 2288.37959513 2331.49902344 2321.63574219 C2331.49862312 2323.09594725 2331.49862312 2323.09594725 2331.49821472 2324.5856514 C2331.47067744 2405.04579746 2327.43689454 2485.21519354 2268.08831787 2866.05065918 C2267.29038956 2869.3480774 2266.49735081 2872.6466485 2265.70458984 2875.9453125 C2253.64791521 2925.98070251 2239.85344828 2975.57146203 2224.16516113 3024.59301758 C2223.27147257 3027.38590617 2222.38087888 3030.17977213 2221.49023438 3032.97363281 C2206.27401096 3080.62027625 2189.62587259 3127.71584345 2171.31152344 3174.26074219 C2170.99115112 3175.07510742 2170.67077881 3175.88947266 2170.34069824 3176.72851562 C2155.39264987 3214.65692308 2139.32374489 3252.21274875 2122.31152344 3289.26074219 C2121.77043945 3290.43910645 2121.22935547 3291.6174707 2120.671875 3292.83154297 C2102.27144502 3332.82151319 2083.42459231 3372.94362528 2061.99121094 3411.40136719 C2059.00196144 3416.7736701 2056.19180267 3422.23463302 2053.37402344 3427.69824219 C2047.82444895 3438.41987524 2041.93278886 3448.92476418 2035.93945312 3459.40332031 C2034.33530497 3462.21899967 2032.74646988 3465.04271633 2031.16308594 3467.87011719 C2023.42623561 3481.67539093 2015.43141596 3495.31640471 2007.31689453 3508.90283203 C2005.37042045 3512.1621216 2003.42867852 3515.42419419 2001.48730469 3518.68652344 C1993.52832958 3532.03435556 1985.40038668 3545.26763464 1977.10839844 3558.41113281 C1975.41104702 3561.10291077 1973.72034225 3563.79876344 1972.03027344 3566.49511719 C1962.65483938 3581.39393225 1952.86979094 3596.01647372 1943.07292175 3610.63975525 C1940.63769666 3614.27539343 1938.20971385 3617.91551896 1935.79589844 3621.56542969 C1927.83392831 3633.60295133 1919.59606575 3645.4434328 1911.31152344 3657.26074219 C1910.75932129 3658.04900391 1910.20711914 3658.83726562 1909.63818359 3659.64941406 C1892.39140554 3684.24594796 1874.58880633 3708.42102884 1856.31152344 3732.26074219 C1855.59270996 3733.19974365 1855.59270996 3733.19974365 1854.859375 3734.15771484 C1852.46053496 3737.2910975 1850.05489441 3740.41912727 1847.64111328 3743.54101562 C1846.67459912 3744.79113053 1845.7088848 3746.04186396 1844.74365234 3747.29296875 C1836.86739477 3757.49645724 1828.86031653 3767.5767267 1820.70117188 3777.55517578 C1818.80540168 3779.88192395 1816.93188823 3782.22604526 1815.06152344 3784.57324219 C1808.62987854 3792.62958235 1802.07163453 3800.57162907 1795.39599609 3808.42626953 C1792.51644603 3811.81970235 1789.67969871 3815.24315202 1786.87402344 3818.69824219 C1781.97903739 3824.7081005 1776.92834986 3830.57825502 1771.86865234 3836.44921875 C1770.31700408 3838.25436615 1768.77218759 3840.06512778 1767.22949219 3841.87792969 C1761.76956293 3848.28828461 1756.23668546 3854.60421594 1750.54589844 3860.81152344 C1748.01503338 3863.58574091 1745.54512953 3866.4078134 1743.08105469 3869.24121094 C1740.2926307 3872.42358445 1737.45506515 3875.56123645 1734.62011719 3878.70214844 C1733.13033063 3880.35326552 1731.64315467 3882.00674363 1730.15917969 3883.66308594 C1724.46158274 3890.02007928 1718.68123841 3896.29717049 1712.88183594 3902.56103516 C1711.29213219 3904.28173129 1709.70741835 3906.00689645 1708.12402344 3907.73339844 C1703.50560105 3912.76438461 1698.88221037 3917.7638227 1693.99862671 3922.54092407 C1692.27221186 3924.30081606 1690.67051849 3926.12753118 1689.06787109 3928.00048828 C1685.54707049 3932.04581845 1681.83844831 3935.84688051 1678.02246094 3939.61230469 C1677.35614655 3940.27483246 1676.68983215 3940.93736023 1676.00332642 3941.6199646 C1673.90017106 3943.711038 1671.7937806 3945.79880293 1669.68652344 3947.88574219 C1666.8997193 3950.64581134 1664.11634386 3953.40927371 1661.33496094 3956.17480469 C1660.70463959 3956.7968277 1660.07431824 3957.41885071 1659.42489624 3958.0597229 C1656.75464795 3960.71521322 1654.24934688 3963.33735814 1651.87255859 3966.26611328 C1649.24034265 3969.34397418 1646.43894462 3971.84336702 1643.3684082 3974.46606445 C1640.10076977 3977.31715171 1637.07462448 3980.39384142 1634.03027344 3983.47949219 C1633.0435968 3984.47184875 1633.0435968 3984.47184875 1632.0369873 3985.48425293 C1629.9593507 3987.57396954 1627.88501717 3989.66691534 1625.81152344 3991.76074219 C1623.07494193 3994.52415919 1620.33490081 3997.28407941 1617.59277344 4000.04199219 C1616.981073 4000.66199097 1616.36937256 4001.28198975 1615.73913574 4001.92077637 C1611.9788083 4005.70200726 1608.09244346 4009.27377029 1604.04663086 4012.74829102 C1601.86111454 4014.65335273 1599.82978956 4016.68037557 1597.81152344 4018.76074219 C1594.50233351 4022.17175335 1591.01190597 4025.28862987 1587.42578125 4028.40039062 C1584.01947163 4031.39762842 1580.73215892 4034.5179433 1577.43652344 4037.63574219 C1571.46520881 4043.25913282 1565.43538487 4048.8034235 1559.31152344 4054.26074219 C1557.60268148 4055.80184506 1555.89435443 4057.34351905 1554.18652344 4058.88574219 C1547.19399279 4065.17469003 1540.08564241 4071.32034423 1532.93969727 4077.43359375 C1528.52648242 4081.21151567 1524.13430562 4085.01295825 1519.74902344 4088.82324219 C1510.39970649 4096.93829004 1500.97083053 4104.94752189 1491.37011719 4112.76464844 C1488.33820507 4115.23896752 1485.31739381 4117.72623574 1482.29882812 4120.21679688 C1478.63953263 4123.23526379 1474.97573115 4126.24824175 1471.31152344 4129.26074219 C1470.63395996 4129.81842285 1469.95639648 4130.37610352 1469.25830078 4130.95068359 C1461.1552492 4137.61178417 1452.95647464 4144.11496763 1444.59887695 4150.45410156 C1439.92296059 4154.00670522 1435.31720379 4157.63339587 1430.74902344 4161.32324219 C1425.15746274 4165.83133233 1419.47446439 4170.19343184 1413.71142578 4174.47973633 C1408.96642122 4178.01033371 1404.26250274 4181.5907156 1399.57104492 4185.19213867 C1390.99799459 4191.76763025 1382.33728919 4198.16276403 1373.47558594 4204.34277344 C1369.11149713 4207.38774998 1364.80456865 4210.50878372 1360.49902344 4213.63574219 C1351.70962236 4220.00539682 1342.82878266 4226.23835115 1333.91992188 4232.43945312 C1331.32826582 4234.24905198 1328.7449283 4236.06998841 1326.16308594 4237.89355469 C1276.58851482 4272.79953532 1224.83505126 4304.99902474 1172.31152344 4335.26074219 C1171.42980469 4335.76911621 1170.54808594 4336.27749023 1169.63964844 4336.80126953 C1140.9378223 4353.32737714 1111.96157765 4369.32381497 1082.55737305 4384.56616211 C1080.10317119 4385.84744192 1077.65411373 4387.13681378 1075.20825195 4388.43383789 C1062.51801589 4395.15783922 1049.72168443 4401.65568775 1036.87402344 4408.07324219 C1035.81849274 4408.60087158 1034.76296204 4409.12850098 1033.67544556 4409.67211914 C1018.46755339 4417.26708993 1003.21635549 4424.6968916 987.72851562 4431.70605469 C983.99952984 4433.40269526 980.28403217 4435.12687698 976.56933594 4436.85449219 C920.58760826 4462.83532565 863.31137478 4486.17930204 805.31152344 4507.26074219 C804.42813293 4507.58242371 803.54474243 4507.90410522 802.63458252 4508.23553467 C695.32988496 4547.27338009 585.21757276 4578.42434015 112.37402344 4645.44824219 C111.55101746 4645.48517181 110.72801147 4645.52210144 109.88006592 4645.56015015 C103.69176226 4645.83170738 97.50224124 4646.0523131 91.31152344 4646.26074219 C90.09800201 4646.30311005 88.88448059 4646.34547791 87.63418579 4646.38912964 C61.38149887 4647.29457356 35.14067352 4647.46331157 8.87402344 4647.44824219 C7.30249134 4647.44784187 7.30249134 4647.44784187 5.69921112 4647.44743347 C-93.77231503 4647.41574372 -193.03701226 4641.47478472 -696.68847656 4539.26074219 C-697.72494324 4538.93265564 -698.76140991 4538.60456909 -699.82928467 4538.26654053 C-763.45654957 4518.08685753 -826.14067164 4495.09995888 -887.68847656 4469.26074219 C-888.33075195 4468.99128784 -888.97302734 4468.7218335 -889.63476562 4468.44421387 C-918.09992426 4456.48981747 -946.32964426 4443.9109349 -974.29980469 4430.84179688 C-976.66150136 4429.73989863 -979.02443727 4428.64116465 -981.38964844 4427.546875 C-999.27487244 4419.27010973 -1016.99901896 4410.69978266 -1034.62597656 4401.88574219 C-1035.53933777 4401.42951477 -1036.45269897 4400.97328735 -1037.39373779 4400.50323486 C-1049.18082292 4394.60902773 -1060.8904341 4388.58249443 -1072.53152466 4382.4050293 C-1074.55839325 4381.32975284 -1076.5868268 4380.25750596 -1078.6159668 4379.18652344 C-1094.16156562 4370.97737018 -1109.58143891 4362.5894634 -1124.84912109 4353.87158203 C-1127.7958441 4352.1998298 -1130.75372262 4350.54961924 -1133.71582031 4348.90527344 C-1148.08048955 4340.93019041 -1162.26402682 4332.68599642 -1176.36279297 4324.25 C-1179.60797049 4322.3088969 -1182.85685234 4320.37412948 -1186.10644531 4318.44042969 C-1200.4218493 4309.90601177 -1214.60607448 4301.17418506 -1228.68847656 4292.26074219 C-1229.45130951 4291.77847168 -1230.21414246 4291.29620117 -1231.00009155 4290.79931641 C-1244.96589861 4281.96400688 -1258.83255943 4272.98763902 -1272.62597656 4263.88574219 C-1273.58238037 4263.25521942 -1274.53878418 4262.62469666 -1275.52416992 4261.97506714 C-1288.90223077 4253.15057226 -1302.19812733 4244.24060779 -1315.27197266 4234.96972656 C-1317.79489201 4233.18548374 -1320.32801754 4231.41661702 -1322.86425781 4229.65136719 C-1333.14838719 4222.49153028 -1343.34469127 4215.21983191 -1353.48388672 4207.85644531 C-1355.67562313 4206.27004562 -1357.87417464 4204.69360448 -1360.07519531 4203.12011719 C-1369.07333828 4196.67821957 -1377.9359988 4190.08159784 -1386.71972656 4183.35009766 C-1391.94177142 4179.34825527 -1397.18941445 4175.38517089 -1402.46801758 4171.45825195 C-1410.15344852 4165.7388098 -1417.70580747 4159.90467714 -1425.10595703 4153.8203125 C-1429.05679955 4150.57351112 -1433.05424254 4147.4173569 -1437.12597656 4144.32324219 C-1444.49914211 4138.6994861 -1451.62026731 4132.77962357 -1458.75683594 4126.86035156 C-1461.35055868 4124.71246589 -1463.95575989 4122.57911924 -1466.56347656 4120.44824219 C-1467.84931641 4119.39636719 -1467.84931641 4119.39636719 -1469.16113281 4118.32324219 C-1470.87499385 4116.92460443 -1472.59121999 4115.52886078 -1474.30957031 4114.13574219 C-1480.11671888 4109.41585366 -1485.82337894 4104.59411386 -1491.48974609 4099.70727539 C-1495.07274709 4096.62385103 -1498.69764378 4093.60569419 -1502.37597656 4090.63574219 C-1507.06873631 4086.82931627 -1511.51453919 4082.80246447 -1515.95800781 4078.70996094 C-1518.53307539 4076.40013637 -1521.17102019 4074.22831206 -1523.87597656 4072.07324219 C-1529.46230909 4067.57046554 -1534.65909777 4062.69707436 -1539.85522461 4057.75219727 C-1543.76700488 4054.03351835 -1547.74802215 4050.4236746 -1551.82446289 4046.88623047 C-1554.40361062 4044.63711906 -1556.92115017 4042.32895802 -1559.43847656 4040.01074219 C-1560.48009057 4039.05235162 -1561.52175873 4038.0940199 -1562.56347656 4037.13574219 C-1563.34464844 4036.41644531 -1563.34464844 4036.41644531 -1564.14160156 4035.68261719 C-1565.61262766 4034.33046188 -1567.08793861 4032.98297249 -1568.56347656 4031.63574219 C-1591.52798274 4010.66814959 -1591.52798274 4010.66814959 -1600.50097656 4001.38574219 C-1602.29718096 3999.64085792 -1604.11955522 3998.03730156 -1606.02612305 3996.41870117 C-1612.11626024 3991.10106861 -1617.76538499 3985.32780082 -1623.47363281 3979.60839844 C-1624.70081779 3978.38188865 -1625.92815104 3977.15552721 -1627.15562439 3975.92930603 C-1629.71646037 3973.36993691 -1632.27549827 3970.80878726 -1634.83325195 3968.24633789 C-1638.0932561 3964.9806371 -1641.35773021 3961.71944743 -1644.62357426 3958.45958805 C-1647.15543941 3955.93135592 -1649.684894 3953.40072279 -1652.21365166 3950.86938286 C-1653.41566255 3949.66671027 -1654.61840176 3948.46476509 -1655.82191658 3947.26359749 C-1667.17292719 3935.92987632 -1667.17292719 3935.92987632 -1672.28160095 3929.88780212 C-1674.75842484 3927.0233407 -1677.47967493 3924.40363624 -1680.18847656 3921.76074219 C-1684.27936242 3917.76939127 -1688.12979475 3913.66072347 -1691.8671875 3909.3359375 C-1695.00325523 3905.76266998 -1698.28996466 3902.3326643 -1701.56347656 3898.88574219 C-1706.64551365 3893.51057776 -1711.68849634 3888.11186504 -1716.61035156 3882.58886719 C-1718.99240848 3879.92024703 -1721.4022299 3877.2780065 -1723.81347656 3874.63574219 C-1728.78743133 3869.1659177 -1733.66822266 3863.62838278 -1738.46972656 3858.00683594 C-1739.50093486 3856.79976906 -1740.53218604 3855.59273881 -1741.56347656 3854.38574219 C-1742.34307739 3853.47284424 -1742.34307739 3853.47284424 -1743.13842773 3852.54150391 C-1746.16753251 3849.00431261 -1749.24003959 3845.51673165 -1752.37597656 3842.07324219 C-1756.12996832 3837.93646415 -1759.65994112 3833.65352987 -1763.17285156 3829.31152344 C-1766.1177331 3825.74016865 -1769.14585919 3822.24879173 -1772.18847656 3818.76074219 C-1777.4774728 3812.68886527 -1782.62926046 3806.52612902 -1787.68847656 3800.26074219 C-1789.21902821 3798.3761854 -1790.75100115 3796.49278882 -1792.28295898 3794.609375 C-1793.95194107 3792.55668209 -1795.61913024 3790.50254285 -1797.28613281 3788.44824219 C-1799.53888177 3785.67323859 -1801.79694961 3782.90270176 -1804.05957031 3780.13574219 C-1809.83167063 3773.07023092 -1815.51761291 3765.96015123 -1821.05175781 3758.70605469 C-1823.53127461 3755.45650753 -1826.04296093 3752.2327029 -1828.55786133 3749.01049805 C-1845.29506698 3727.56238929 -1861.58280739 3705.80339126 -1877.47363281 3683.72167969 C-1879.6185846 3680.74131189 -1881.77254064 3677.76780577 -1883.93457031 3674.79980469 C-1891.16408118 3664.86316046 -1898.17611489 3654.7973629 -1905.07666016 3644.62988281 C-1906.65536055 3642.30941801 -1908.24241632 3639.9949439 -1909.83300781 3637.68261719 C-1932.67701948 3604.46267448 -1954.61397058 3570.62972506 -1975.68847656 3536.26074219 C-1976.34219238 3535.19581543 -1976.9959082 3534.13088867 -1977.66943359 3533.03369141 C-1987.28324671 3517.35131351 -1996.66846128 3501.55774315 -2005.78955078 3485.58203125 C-2007.42164836 3482.72743425 -2009.05965054 3479.87641097 -2010.7013092 3477.02731323 C-2019.03963922 3462.55499209 -2027.18601802 3447.99331661 -2035.07324219 3433.26904297 C-2036.73343394 3430.17701111 -2038.40490674 3427.09130604 -2040.07910156 3424.00683594 C-2061.63158174 3384.2569148 -2082.4733052 3343.91032639 -2101.12060547 3302.70849609 C-2102.85804225 3298.88786665 -2104.62144953 3295.0798259 -2106.38769531 3291.27246094 C-2137.36992875 3224.3633626 -2164.07255386 3155.73475376 -2188.68847656 3086.26074219 C-2188.97660217 3085.44941833 -2189.26472778 3084.63809448 -2189.56158447 3083.80218506 C-2225.61833493 2982.23200557 -2253.23260286 2877.04672632 -2292.68847656 2658.26074219 C-2292.91280365 2656.71589142 -2292.91280365 2656.71589142 -2293.1416626 2655.13983154 C-2306.88816485 2560.35231993 -2315.6745287 2463.82794759 -2315.85644531 2360.16308594 C-2315.85787821 2358.77335658 -2315.85947617 2357.38362738 -2315.86123085 2355.99389839 C-2315.87040087 2348.69783247 -2315.87457755 2341.40178439 -2315.8737793 2334.10571289 C-2315.87325029 2328.20854949 -2315.88023434 2322.31145303 -2315.89428711 2316.41430664 C-2315.98059921 2279.3168668 -2315.54998535 2242.3224845 -2313.68847656 2205.26074219 C-2313.63005899 2204.0763386 -2313.63005899 2204.0763386 -2313.57046127 2202.86800766 C-2313.10548344 2193.45196367 -2312.55697274 2184.04295677 -2311.93847656 2174.63574219 C-2311.85610748 2173.36073853 -2311.7737384 2172.08573486 -2311.68887329 2170.77209473 C-2305.50360973 2075.44368413 -2293.62552455 1980.47967484 -2250.68847656 1771.26074219 C-2250.41152954 1770.12822021 -2250.13458252 1768.99569824 -2249.84924316 1767.82885742 C-2237.50750933 1717.47685932 -2223.51503558 1667.6279523 -2207.68847656 1618.26074219 C-2207.20960999 1616.76546997 -2207.20960999 1616.76546997 -2206.72106934 1615.23999023 C-2180.20679778 1532.51807683 -2149.27690439 1451.5102778 -2113.68847656 1372.26074219 C-2113.36792297 1371.54680298 -2113.04736938 1370.83286377 -2112.71710205 1370.09729004 C-2103.60452139 1349.82254909 -2094.14223288 1329.73944987 -2084.37232971 1309.77372742 C-2082.10083887 1305.12490858 -2079.88147295 1300.45357389 -2077.68017578 1295.77124023 C-2066.04379176 1271.07309524 -2053.37318416 1246.79716238 -2040.14550781 1222.91748047 C-2038.52292226 1219.9588719 -2036.93152254 1216.98478932 -2035.34472656 1214.00683594 C-2029.00418222 1202.11059045 -2022.50057895 1190.34961124 -2015.65551758 1178.7355957 C-2012.26312082 1172.97763056 -2008.95688925 1167.18681972 -2005.75097656 1161.32324219 C-2000.04024293 1150.92699039 -1993.888634 1140.79712194 -1987.74316406 1130.65380859 C-1985.99571133 1127.76810303 -1984.25253768 1124.87990347 -1982.51150513 1121.99032593 C-1973.96720238 1107.81365069 -1965.27267324 1093.748163 -1956.32421875 1079.82177734 C-1954.77622656 1077.39812988 -1953.24811171 1074.96338018 -1951.72753906 1072.52246094 C-1936.74317667 1048.55469669 -1920.61114638 1025.29490663 -1904.66113281 1001.96386719 C-1904.14707382 1001.21160355 -1903.63301483 1000.4593399 -1903.1033783 999.6842804 C-1885.93422183 974.60682769 -1867.98133013 950.04123379 -1849.52050781 925.90185547 C-1845.43992662 920.56593984 -1841.3923154 915.207632 -1837.37597656 909.82324219 C-1829.3477885 899.08461999 -1821.00803807 888.61337563 -1812.52905273 878.22827148 C-1808.98725285 873.88340435 -1805.5069767 869.49626806 -1802.06347656 865.07324219 C-1798.02987793 859.89816955 -1793.8621513 854.85899965 -1789.59985352 849.87109375 C-1786.92202555 846.7337852 -1784.30693501 843.5604375 -1781.75097656 840.32324219 C-1778.01761318 835.61063595 -1774.11344535 831.05962424 -1770.18530273 826.50976562 C-1767.08387989 822.91076476 -1764.04784087 819.27068469 -1761.06347656 815.57324219 C-1757.25938288 810.88335774 -1753.23495985 806.4402563 -1749.14550781 801.99902344 C-1746.79471524 799.37914173 -1744.57597197 796.69522 -1742.37597656 793.94824219 C-1737.74194223 788.20302733 -1732.73530503 782.85466703 -1727.68847656 777.47558594 C-1724.87829182 774.47765179 -1722.16356019 771.40923801 -1719.47753906 768.29980469 C-1715.76579807 764.06939247 -1711.92671304 759.95200002 -1708.11474609 755.81201172 C-1705.86276315 753.36266224 -1703.62055006 750.90438078 -1701.37597656 748.44824219 C-1696.15111946 742.74371378 -1690.88241434 737.08058756 -1685.59484863 731.43417358 C-1683.07452169 728.74264652 -1680.55741175 726.04816939 -1678.0423584 723.35171509 C-1668.71671121 713.37531724 -1659.19618733 703.61973237 -1649.53222656 693.97167969 C-1648.04953766 692.48831423 -1646.56699698 691.00480061 -1645.08459473 689.52114868 C-1642.01406666 686.44916433 -1638.94178341 683.37894992 -1635.86816406 680.31005859 C-1631.94691388 676.39455022 -1628.03023386 672.47450561 -1624.11483002 668.55315208 C-1621.06933657 665.50403529 -1618.02145358 662.457316 -1614.97285461 659.41130447 C-1613.52735732 657.96646919 -1612.08258839 656.52090479 -1610.63859558 655.07456589 C-1597.07626284 641.49499991 -1597.07626284 641.49499991 -1591.17028809 636.52236938 C-1588.87455792 634.56776479 -1586.79048051 632.41955705 -1584.68847656 630.26074219 C-1581.21375314 626.69210732 -1577.58510533 623.40261365 -1573.82519531 620.14355469 C-1570.19231661 616.94237089 -1566.69710623 613.5968163 -1563.18847656 610.26074219 C-1558.3864071 605.69484008 -1553.53928602 601.21428889 -1548.53271484 596.87304688 C-1545.92914562 594.5969056 -1543.40652536 592.24286876 -1540.87597656 589.88574219 C-1537.10106529 586.39306727 -1533.26289372 583.04564212 -1529.25097656 579.82324219 C-1525.06607562 576.45725711 -1521.10557677 572.92874496 -1517.18847656 569.26074219 C-1512.484412 564.8602767 -1507.65827215 560.70659841 -1502.63378906 556.67089844 C-1499.08929598 553.77043129 -1495.638823 550.77201648 -1492.18847656 547.76074219 C-1487.0856199 543.31484012 -1481.93555898 538.94810009 -1476.67675781 534.68652344 C-1473.66549611 532.24208747 -1470.67140976 529.77793835 -1467.68017578 527.30908203 C-1464.01992349 524.28853326 -1460.35427755 521.27455252 -1456.68847656 518.26074219 C-1456.01091309 517.70306152 -1455.33334961 517.14538086 -1454.63525391 516.57080078 C-1446.53220233 509.9097002 -1438.33342776 503.40651674 -1429.97583008 497.06738281 C-1425.29991371 493.51477915 -1420.69415691 489.88808851 -1416.12597656 486.19824219 C-1410.53646013 481.69180019 -1404.85517703 477.33182753 -1399.0949707 473.04614258 C-1394.29958485 469.47712148 -1389.5413853 465.86256518 -1384.7956543 462.2277832 C-1376.46052843 455.84553912 -1368.06995647 449.58469125 -1359.48876953 443.53857422 C-1356.75359379 441.59717066 -1354.04178309 439.62387533 -1351.32739258 437.65356445 C-1344.11509538 432.41992401 -1336.86371937 427.24605371 -1329.56347656 422.13574219 C-1328.81372559 421.61077148 -1328.06397461 421.08580078 -1327.29150391 420.54492188 C-1313.27965716 410.76312277 -1299.15089647 401.15256026 -1284.98876953 391.59008789 C-1283.12107665 390.32829608 -1281.2542146 389.0652736 -1279.38818359 387.80102539 C-1268.50332271 380.42664169 -1257.56428439 373.19496132 -1246.36883545 366.30062866 C-1242.21626895 363.73082183 -1238.11451512 361.07984295 -1234.00097656 358.44824219 C-1182.05052503 325.34591481 -1128.59629299 294.12078012 -1073.83422852 265.8972168 C-1071.47779941 264.67136159 -1069.12836658 263.43533005 -1066.78295898 262.1887207 C-1053.62614133 255.20350103 -1040.3361724 248.49077692 -1027.01293945 241.83032227 C-1024.5196822 240.58373403 -1022.02784838 239.33437318 -1019.53735352 238.08227539 C-1001.73650493 229.13376113 -983.80688839 220.55057475 -965.68847656 212.26074219 C-963.8590215 211.42007843 -962.02966843 210.57919268 -960.20043945 209.73803711 C-890.20249682 177.60332318 -818.59328507 149.10941295 -745.68847656 124.26074219 C-744.93985352 124.00546753 -744.19123047 123.75019287 -743.41992188 123.48718262 C-732.99373946 119.93657416 -722.54360786 116.4617765 -712.07421875 113.04077148 C-709.62992342 112.24159797 -707.18654677 111.43965422 -704.74316406 110.63769531 C-598.3878302 75.79888569 -488.86932337 49.68391063 -143.46582031 4.35839844 C-142.55659317 4.29752548 -141.64736603 4.23665253 -140.71058655 4.17393494 C-93.84986263 1.14916933 -46.95179752 -0.08847333 0 0 Z " fill="#5B318C" transform="translate(2315.6884765625,-0.2607421875)"/>
<path d="M0 0 C0.70030334 -0.00067474 1.40060669 -0.00134949 2.12213135 -0.00204468 C16.27123281 0.01938789 30.12427541 1.15074036 44.125 3.25 C45.16720703 3.40033691 46.20941406 3.55067383 47.28320312 3.70556641 C92.10272225 10.42012722 134.67792697 30.32074025 170.125 58.25 C170.72650879 58.72163574 171.32801758 59.19327148 171.94775391 59.67919922 C188.06125611 72.48189838 203.87926344 87.86735923 215.91845703 104.5859375 C217.21974505 106.38067225 218.55777869 108.1437358 219.90234375 109.90625 C235.80834596 130.90620665 248.05515859 154.55772937 257.125 179.25 C257.81142578 181.04630859 257.81142578 181.04630859 258.51171875 182.87890625 C272.41820313 221.43978881 275.2932083 264.82568548 270.125 305.25 C270.00672852 306.1884375 269.88845703 307.126875 269.76660156 308.09375 C261.18850865 373.05152228 225.696534 437.86251114 173.703125 478.29296875 C172.42695312 479.26169922 172.42695312 479.26169922 171.125 480.25 C170.15046875 481.02988281 169.1759375 481.80976563 168.171875 482.61328125 C145.42966877 500.74375492 119.3142497 514.1213385 92.125 524.25 C91.44614746 524.50571777 90.76729492 524.76143555 90.06787109 525.02490234 C61.44347488 535.65513944 31.49214132 538.61014823 1.1875 538.6875 C-0.34626282 538.6967601 -0.34626282 538.6967601 -1.91101074 538.70620728 C-66.52191446 538.95712467 -130.14058403 513.50164824 -177.44140625 469.49609375 C-179.47905276 467.61544087 -181.55592606 465.83355404 -183.6875 464.0625 C-203.8897896 446.42689473 -219.67624524 423.40000195 -232.875 400.25 C-233.2162793 399.65396973 -233.55755859 399.05793945 -233.90917969 398.44384766 C-255.48596086 360.4005756 -266.57948414 316.02939632 -266.21118164 272.4230957 C-266.18736488 269.4204653 -266.1906877 266.41871838 -266.19726562 263.41601562 C-266.17455354 246.06930937 -264.53487425 229.56114145 -260.75 212.625 C-260.59849487 211.94300537 -260.44698975 211.26101074 -260.29089355 210.55834961 C-252.36048279 175.12093037 -237.38344954 141.56393526 -215.875 112.25 C-215.44832031 111.66637695 -215.02164062 111.08275391 -214.58203125 110.48144531 C-209.48203721 103.55722263 -204.03722433 97.04288864 -198.1796875 90.73828125 C-196.17273803 88.57145615 -194.23276718 86.36826143 -192.3125 84.125 C-185.99315186 76.89236611 -179.17567384 70.48795226 -171.67578125 64.4921875 C-169.86305072 63.04099179 -168.067327 61.56818225 -166.29296875 60.0703125 C-125.89610852 26.03277809 -75.81941401 7.67221846 -23.875 1.25 C-23.19002441 1.15428711 -22.50504883 1.05857422 -21.79931641 0.95996094 C-14.55785586 0.01872288 -7.29267942 0.0063587 0 0 Z " fill="#FEFEFE" transform="translate(1600.875,1700.75)"/>
<path d="M0 0 C1.38783691 0.19408447 1.38783691 0.19408447 2.80371094 0.39208984 C29.88731291 4.33306119 57.6532738 13.4572459 82 26 C82.74765625 26.38333496 83.4953125 26.76666992 84.265625 27.16162109 C103.89321148 37.36345973 122.46225577 49.92835218 138.7421875 64.92578125 C140.77163463 66.79020413 142.84034156 68.58774554 144.9375 70.375 C153.86395177 78.1856453 161.63826719 86.71887151 169 96 C169.93255591 97.12174109 170.86757462 98.24143804 171.8046875 99.359375 C210.09184701 145.42341732 230.44693316 206.36647332 230.4375 266 C230.43889984 266.85873718 230.44029968 267.71747437 230.44174194 268.60223389 C230.41854917 286.10975359 228.33860132 302.84197394 225 320 C224.71962891 321.53213135 224.71962891 321.53213135 224.43359375 323.09521484 C214.3591457 377.61850079 182.03130716 433.63843802 139 469 C138.09636719 469.79148437 137.19273437 470.58296875 136.26171875 471.3984375 C121.11308727 484.63865625 104.76984878 495.58861875 87 505 C86.06365723 505.49886719 85.12731445 505.99773437 84.16259766 506.51171875 C58.92924285 519.76508587 32.09765463 528.40956927 4 533 C2.71351563 533.23074219 1.42703125 533.46148438 0.1015625 533.69921875 C-43.98488639 541.22487165 -93.69802051 536.16385031 -135 519 C-135.87237305 518.64180176 -136.74474609 518.28360352 -137.64355469 517.91455078 C-163.57066441 507.184121 -187.206119 493.79034788 -209 476 C-209.5357666 475.56574707 -210.0715332 475.13149414 -210.62353516 474.68408203 C-224.69890196 463.20661407 -237.9551488 450.44326695 -249 436 C-250.19109375 434.49953125 -250.19109375 434.49953125 -251.40625 432.96875 C-288.63451828 385.88232643 -308.2025404 327.62625146 -308.25 267.8125 C-308.25100708 266.92871674 -308.25201416 266.04493347 -308.25305176 265.1343689 C-308.24185888 250.56075115 -307.40170347 236.39454049 -305 222 C-304.79914795 220.68805664 -304.79914795 220.68805664 -304.59423828 219.34960938 C-300.28348463 191.36367417 -290.21016445 164.9296635 -277 140 C-276.65356445 139.34435059 -276.30712891 138.68870117 -275.95019531 138.01318359 C-264.74581069 117.00368104 -250.51408704 98.11048044 -234 81 C-233.02836914 79.98752197 -233.02836914 79.98752197 -232.03710938 78.95458984 C-223.4287809 70.02556684 -214.72224857 61.62840954 -204.72265625 54.27392578 C-202.96438165 52.97365978 -201.23153929 51.6442018 -199.5 50.30859375 C-173.02645152 30.11068324 -141.80747198 14.84847797 -109.54589844 6.65136719 C-107.02488722 6.00636739 -104.51710633 5.32181171 -102.0078125 4.6328125 C-69.76295534 -3.94996838 -33.01375675 -4.94761764 0 0 Z " fill="#FEFEFE" transform="translate(3069,877)"/>
<path d="M0 0 C6.35146163 4.98422696 12.03750996 10.73001185 17.2265625 16.90625 C19.42125445 19.49734005 21.70801441 21.99464638 24 24.5 C27.43264761 28.26350521 30.8155501 32.06129351 34.15625 35.90625 C36.40876457 38.46419027 38.70317092 40.9817898 41 43.5 C44.43264761 47.26350521 47.8155501 51.06129351 51.15625 54.90625 C54.25760235 58.4281247 57.43513333 61.88077022 60.59765625 65.34765625 C62.56941844 67.52460996 64.51365337 69.71838674 66.4375 71.9375 C69.3988351 75.3468858 72.44152486 78.6779431 75.5 82 C79.14414329 85.95862186 82.73913717 89.9517676 86.265625 94.015625 C89.79499465 98.05373262 93.40570631 102.01974189 97 106 C105.56860207 115.48872041 105.56860207 115.48872041 109.4375 119.9375 C113.09178862 124.13442081 116.84744973 128.2365276 120.59765625 132.34765625 C122.56941844 134.52460996 124.51365337 136.71838674 126.4375 138.9375 C129.3988351 142.3468858 132.44152486 145.6779431 135.5 149 C139.14414329 152.95862186 142.73913717 156.9517676 146.265625 161.015625 C149.79499465 165.05373262 153.40570631 169.01974189 157 173 C165.56860207 182.48872041 165.56860207 182.48872041 169.4375 186.9375 C173.09057956 191.13303221 176.84505549 195.23373553 180.59375 199.34375 C183.15148771 202.16722669 185.65769969 205.03056002 188.15625 207.90625 C191.25760235 211.4281247 194.43513333 214.88077022 197.59765625 218.34765625 C199.56941844 220.52460996 201.51365337 222.71838674 203.4375 224.9375 C206.3988351 228.3468858 209.44152486 231.6779431 212.5 235 C216.14414329 238.95862186 219.73913717 242.9517676 223.265625 247.015625 C226.79499465 251.05373262 230.40570631 255.01974189 234 259 C242.56860207 268.48872041 242.56860207 268.48872041 246.4375 272.9375 C250.09178862 277.13442081 253.84744973 281.2365276 257.59765625 285.34765625 C259.56941844 287.52460996 261.51365337 289.71838674 263.4375 291.9375 C266.3988351 295.3468858 269.44152486 298.6779431 272.5 302 C276.14414329 305.95862186 279.73913717 309.9517676 283.265625 314.015625 C286.79499465 318.05373262 290.40570631 322.01974189 294 326 C302.56860207 335.48872041 302.56860207 335.48872041 306.4375 339.9375 C310.09178862 344.13442081 313.84744973 348.2365276 317.59765625 352.34765625 C319.56941844 354.52460996 321.51365337 356.71838674 323.4375 358.9375 C326.3988351 362.3468858 329.44152486 365.6779431 332.5 369 C336.14414329 372.95862186 339.73913717 376.9517676 343.265625 381.015625 C346.79499465 385.05373262 350.40570631 389.01974189 354 393 C362.56860207 402.48872041 362.56860207 402.48872041 366.4375 406.9375 C370.09057956 411.13303221 373.84505549 415.23373553 377.59375 419.34375 C380.15148771 422.16722669 382.65769969 425.03056002 385.15625 427.90625 C388.25760235 431.4281247 391.43513333 434.88077022 394.59765625 438.34765625 C396.56941844 440.52460996 398.51365337 442.71838674 400.4375 444.9375 C403.3988351 448.3468858 406.44152486 451.6779431 409.5 455 C413.14414329 458.95862186 416.73913717 462.9517676 420.265625 467.015625 C423.79499465 471.05373262 427.40570631 475.01974189 431 479 C439.56860207 488.48872041 439.56860207 488.48872041 443.4375 492.9375 C447.09178862 497.13442081 450.84744973 501.2365276 454.59765625 505.34765625 C456.56941844 507.52460996 458.51365337 509.71838674 460.4375 511.9375 C463.3988351 515.3468858 466.44152486 518.6779431 469.5 522 C473.14414329 525.95862186 476.73913717 529.9517676 480.265625 534.015625 C483.79499465 538.05373262 487.40570631 542.01974189 491 546 C499.56860207 555.48872041 499.56860207 555.48872041 503.4375 559.9375 C507.09057956 564.13303221 510.84505549 568.23373553 514.59375 572.34375 C517.15148771 575.16722669 519.65769969 578.03056002 522.15625 580.90625 C525.25760235 584.4281247 528.43513333 587.88077022 531.59765625 591.34765625 C533.56941844 593.52460996 535.51365337 595.71838674 537.4375 597.9375 C540.3988351 601.3468858 543.44152486 604.6779431 546.5 608 C550.14414329 611.95862186 553.73913717 615.9517676 557.265625 620.015625 C560.79499465 624.05373262 564.40570631 628.01974189 568 632 C576.56860207 641.48872041 576.56860207 641.48872041 580.4375 645.9375 C584.09178862 650.13442081 587.84744973 654.2365276 591.59765625 658.34765625 C593.56941844 660.52460996 595.51365337 662.71838674 597.4375 664.9375 C600.3988351 668.3468858 603.44152486 671.6779431 606.5 675 C610.14414329 678.95862186 613.73913717 682.9517676 617.265625 687.015625 C620.79499465 691.05373262 624.40570631 695.01974189 628 699 C636.56860207 708.48872041 636.56860207 708.48872041 640.4375 712.9375 C644.09178862 717.13442081 647.84744973 721.2365276 651.59765625 725.34765625 C653.56941844 727.52460996 655.51365337 729.71838674 657.4375 731.9375 C660.3988351 735.3468858 663.44152486 738.6779431 666.5 742 C670.14414329 745.95862186 673.73913717 749.9517676 677.265625 754.015625 C680.79499465 758.05373262 684.40570631 762.01974189 688 766 C696.56860207 775.48872041 696.56860207 775.48872041 700.4375 779.9375 C704.09057956 784.13303221 707.84505549 788.23373553 711.59375 792.34375 C714.15148771 795.16722669 716.65769969 798.03056002 719.15625 800.90625 C722.25760235 804.4281247 725.43513333 807.88077022 728.59765625 811.34765625 C730.56941844 813.52460996 732.51365337 815.71838674 734.4375 817.9375 C737.3988351 821.3468858 740.44152486 824.6779431 743.5 828 C747.14414329 831.95862186 750.73913717 835.9517676 754.265625 840.015625 C757.79499465 844.05373262 761.40570631 848.01974189 765 852 C773.56860207 861.48872041 773.56860207 861.48872041 777.4375 865.9375 C781.09178862 870.13442081 784.84744973 874.2365276 788.59765625 878.34765625 C790.56941844 880.52460996 792.51365337 882.71838674 794.4375 884.9375 C797.3988351 888.3468858 800.44152486 891.6779431 803.5 895 C807.14414329 898.95862186 810.73913717 902.9517676 814.265625 907.015625 C817.79499465 911.05373262 821.40570631 915.01974189 825 919 C833.56860207 928.48872041 833.56860207 928.48872041 837.4375 932.9375 C841.09178862 937.13442081 844.84744973 941.2365276 848.59765625 945.34765625 C850.56941844 947.52460996 852.51365337 949.71838674 854.4375 951.9375 C857.3988351 955.3468858 860.44152486 958.6779431 863.5 962 C867.14414329 965.95862186 870.73913717 969.9517676 874.265625 974.015625 C877.79499465 978.05373262 881.40570631 982.01974189 885 986 C893.56860207 995.48872041 893.56860207 995.48872041 897.4375 999.9375 C900.24822525 1003.16559512 903.115799 1006.33738443 906 1009.5 C907.66691731 1011.33310544 909.33360177 1013.16642266 911 1015 C911.63164062 1015.6909375 912.26328125 1016.381875 912.9140625 1017.09375 C927.76125177 1033.63582389 936.13740283 1050.96782607 935.30859375 1073.4296875 C934.22019549 1092.10675659 926.1757071 1108.2986438 912.69921875 1121.203125 C896.94116194 1134.71739958 878.29647101 1139.16243425 858 1138 C831.7874271 1135.19951144 814.90116576 1116.76125249 798.62890625 1097.87890625 C795.14839824 1093.86421955 791.56026523 1089.94386283 788 1086 C785.75203023 1083.50312008 783.50491993 1081.00546849 781.2578125 1078.5078125 C779.73291756 1076.81407106 778.20684598 1075.12138831 776.6796875 1073.4296875 C773.28127068 1069.66262885 769.8918339 1065.89084414 766.5625 1062.0625 C762.90942044 1057.86696779 759.15494451 1053.76626447 755.40625 1049.65625 C752.84851229 1046.83277331 750.34230031 1043.96943998 747.84375 1041.09375 C744.74239765 1037.5718753 741.56486667 1034.11922978 738.40234375 1030.65234375 C736.43058156 1028.47539004 734.48634663 1026.28161326 732.5625 1024.0625 C729.6011649 1020.6531142 726.55847514 1017.3220569 723.5 1014 C719.85585671 1010.04137814 716.26086283 1006.0482324 712.734375 1001.984375 C709.20500535 997.94626738 705.59429369 993.98025811 702 990 C693.43139793 980.51127959 693.43139793 980.51127959 689.5625 976.0625 C685.90942044 971.86696779 682.15494451 967.76626447 678.40625 963.65625 C675.84851229 960.83277331 673.34230031 957.96943998 670.84375 955.09375 C667.74239765 951.5718753 664.56486667 948.11922978 661.40234375 944.65234375 C659.43058156 942.47539004 657.48634663 940.28161326 655.5625 938.0625 C652.6011649 934.6531142 649.55847514 931.3220569 646.5 928 C642.85585671 924.04137814 639.26086283 920.0482324 635.734375 915.984375 C632.20500535 911.94626738 628.59429369 907.98025811 625 904 C616.43139793 894.51127959 616.43139793 894.51127959 612.5625 890.0625 C608.90821138 885.86557919 605.15255027 881.7634724 601.40234375 877.65234375 C599.43058156 875.47539004 597.48634663 873.28161326 595.5625 871.0625 C592.6011649 867.6531142 589.55847514 864.3220569 586.5 861 C582.85585671 857.04137814 579.26086283 853.0482324 575.734375 848.984375 C572.20500535 844.94626738 568.59429369 840.98025811 565 837 C556.43139793 827.51127959 556.43139793 827.51127959 552.5625 823.0625 C548.90821138 818.86557919 545.15255027 814.7634724 541.40234375 810.65234375 C539.43058156 808.47539004 537.48634663 806.28161326 535.5625 804.0625 C532.6011649 800.6531142 529.55847514 797.3220569 526.5 794 C522.85585671 790.04137814 519.26086283 786.0482324 515.734375 781.984375 C512.20500535 777.94626738 508.59429369 773.98025811 505 770 C496.43139793 760.51127959 496.43139793 760.51127959 492.5625 756.0625 C488.90942044 751.86696779 485.15494451 747.76626447 481.40625 743.65625 C478.84851229 740.83277331 476.34230031 737.96943998 473.84375 735.09375 C470.74239765 731.5718753 467.56486667 728.11922978 464.40234375 724.65234375 C462.43058156 722.47539004 460.48634663 720.28161326 458.5625 718.0625 C455.6011649 714.6531142 452.55847514 711.3220569 449.5 708 C445.85585671 704.04137814 442.26086283 700.0482324 438.734375 695.984375 C435.20500535 691.94626738 431.59429369 687.98025811 428 684 C419.43139793 674.51127959 419.43139793 674.51127959 415.5625 670.0625 C411.90821138 665.86557919 408.15255027 661.7634724 404.40234375 657.65234375 C402.43058156 655.47539004 400.48634663 653.28161326 398.5625 651.0625 C395.6011649 647.6531142 392.55847514 644.3220569 389.5 641 C385.85585671 637.04137814 382.26086283 633.0482324 378.734375 628.984375 C375.20500535 624.94626738 371.59429369 620.98025811 368 617 C359.43139793 607.51127959 359.43139793 607.51127959 355.5625 603.0625 C351.90821138 598.86557919 348.15255027 594.7634724 344.40234375 590.65234375 C342.43058156 588.47539004 340.48634663 586.28161326 338.5625 584.0625 C335.6011649 580.6531142 332.55847514 577.3220569 329.5 574 C325.85585671 570.04137814 322.26086283 566.0482324 318.734375 561.984375 C315.20500535 557.94626738 311.59429369 553.98025811 308 550 C299.43139793 540.51127959 299.43139793 540.51127959 295.5625 536.0625 C291.90942044 531.86696779 288.15494451 527.76626447 284.40625 523.65625 C281.84851229 520.83277331 279.34230031 517.96943998 276.84375 515.09375 C273.74239765 511.5718753 270.56486667 508.11922978 267.40234375 504.65234375 C265.43058156 502.47539004 263.48634663 500.28161326 261.5625 498.0625 C258.6011649 494.6531142 255.55847514 491.3220569 252.5 488 C248.85585671 484.04137814 245.26086283 480.0482324 241.734375 475.984375 C238.20500535 471.94626738 234.59429369 467.98025811 231 464 C222.43139793 454.51127959 222.43139793 454.51127959 218.5625 450.0625 C214.90821138 445.86557919 211.15255027 441.7634724 207.40234375 437.65234375 C205.43058156 435.47539004 203.48634663 433.28161326 201.5625 431.0625 C198.6011649 427.6531142 195.55847514 424.3220569 192.5 421 C188.85585671 417.04137814 185.26086283 413.0482324 181.734375 408.984375 C178.20500535 404.94626738 174.59429369 400.98025811 171 397 C162.43139793 387.51127959 162.43139793 387.51127959 158.5625 383.0625 C154.90942044 378.86696779 151.15494451 374.76626447 147.40625 370.65625 C144.84851229 367.83277331 142.34230031 364.96943998 139.84375 362.09375 C136.74239765 358.5718753 133.56486667 355.11922978 130.40234375 351.65234375 C128.43058156 349.47539004 126.48634663 347.28161326 124.5625 345.0625 C121.6011649 341.6531142 118.55847514 338.3220569 115.5 335 C111.85585671 331.04137814 108.26086283 327.0482324 104.734375 322.984375 C101.20500535 318.94626738 97.59429369 314.98025811 94 311 C85.43139793 301.51127959 85.43139793 301.51127959 81.5625 297.0625 C77.90821138 292.86557919 74.15255027 288.7634724 70.40234375 284.65234375 C68.43058156 282.47539004 66.48634663 280.28161326 64.5625 278.0625 C61.6011649 274.6531142 58.55847514 271.3220569 55.5 268 C51.85585671 264.04137814 48.26086283 260.0482324 44.734375 255.984375 C41.20500535 251.94626738 37.59429369 247.98025811 34 244 C25.43139793 234.51127959 25.43139793 234.51127959 21.5625 230.0625 C17.90821138 225.86557919 14.15255027 221.7634724 10.40234375 217.65234375 C8.43058156 215.47539004 6.48634663 213.28161326 4.5625 211.0625 C1.6011649 207.6531142 -1.44152486 204.3220569 -4.5 201 C-8.14414329 197.04137814 -11.73913717 193.0482324 -15.265625 188.984375 C-18.79499465 184.94626738 -22.40570631 180.98025811 -26 177 C-34.56860207 167.51127959 -34.56860207 167.51127959 -38.4375 163.0625 C-42.09057956 158.86696779 -45.84505549 154.76626447 -49.59375 150.65625 C-52.15148771 147.83277331 -54.65769969 144.96943998 -57.15625 142.09375 C-60.25760235 138.5718753 -63.43513333 135.11922978 -66.59765625 131.65234375 C-68.56941844 129.47539004 -70.51365337 127.28161326 -72.4375 125.0625 C-74.89015737 122.23473033 -77.40388 119.47190962 -79.94897461 116.72705078 C-85.55179916 110.6781873 -90.88606384 104.47281169 -96 98 C-96.48082031 97.4225 -96.96164062 96.845 -97.45703125 96.25 C-109.18419707 81.35836086 -110.38545935 62.10345831 -108.72265625 43.9765625 C-105.81821431 26.88184706 -95.3572213 11.16833828 -81.75 0.75 C-56.93864134 -16.37918066 -25.06498186 -17.01864373 0 0 Z " fill="#FEFEFE" transform="translate(1997,2180)"/>
<path d="M0 0 C4.39999881 3.25195168 8.238423 7.04174775 12 11 C12.48339844 11.50644043 12.96679688 12.01288086 13.46484375 12.53466797 C18.54417138 17.8986131 23.43002355 23.43556291 28.265625 29.01953125 C30.27264538 31.31133155 32.32402851 33.55996752 34.375 35.8125 C37.42858867 39.18940982 40.34429205 42.63217132 43.1875 46.1875 C47.49535504 51.52139407 52.13859865 56.47515486 56.84643555 61.4519043 C60.98543211 65.84997201 64.82709615 70.40262801 68.59375 75.125 C71.59742005 78.71380058 74.78474154 82.1012067 78 85.5 C82.77178383 90.54416896 87.26183993 95.69394856 91.59375 101.125 C94.59742005 104.71380058 97.78474154 108.1012067 101 111.5 C105.77178383 116.54416896 110.26183993 121.69394856 114.59375 127.125 C117.59742005 130.71380058 120.78474154 134.1012067 124 137.5 C127.99401455 141.72200269 131.87289241 145.95258153 135.5 150.5 C140.27996646 156.48838495 145.53219357 161.99684413 150.78125 167.5703125 C154.73316017 171.76808922 158.52345773 176.08290505 162.25439453 180.47753906 C163.7304594 182.21559391 165.20836838 183.95205423 166.6875 185.6875 C167.19982178 186.28868652 167.71214355 186.88987305 168.23999023 187.50927734 C172.2823296 192.22502614 176.47176965 196.78414842 180.71411133 201.31958008 C183.7383702 204.57331665 186.60000498 207.90240919 189.375 211.375 C193.60978848 216.65693617 198.19871525 221.53876878 202.84716797 226.45263672 C206.98587046 230.85049683 210.82731544 235.40290295 214.59375 240.125 C217.59742005 243.71380058 220.78474154 247.1012067 224 250.5 C228.77178383 255.54416896 233.26183993 260.69394856 237.59375 266.125 C240.59742005 269.71380058 243.78474154 273.1012067 247 276.5 C251.77178383 281.54416896 256.26183993 286.69394856 260.59375 292.125 C263.59742005 295.71380058 266.78474154 299.1012067 270 302.5 C273.99401455 306.72200269 277.87289241 310.95258153 281.5 315.5 C286.27996646 321.48838495 291.53219357 326.99684413 296.78125 332.5703125 C300.73316017 336.76808922 304.52345773 341.08290505 308.25439453 345.47753906 C309.7304594 347.21559391 311.20836838 348.95205423 312.6875 350.6875 C313.19982178 351.28868652 313.71214355 351.88987305 314.23999023 352.50927734 C318.2823296 357.22502614 322.47176965 361.78414842 326.71411133 366.31958008 C329.7383702 369.57331665 332.60000498 372.90240919 335.375 376.375 C339.60978848 381.65693617 344.19871525 386.53876878 348.84716797 391.45263672 C352.98587046 395.85049683 356.82731544 400.40290295 360.59375 405.125 C363.59742005 408.71380058 366.78474154 412.1012067 370 415.5 C374.77178383 420.54416896 379.26183993 425.69394856 383.59375 431.125 C386.59742005 434.71380058 389.78474154 438.1012067 393 441.5 C396.99401455 445.72200269 400.87289241 449.95258153 404.5 454.5 C409.27996646 460.48838495 414.53219357 465.99684413 419.78125 471.5703125 C423.73316017 475.76808922 427.52345773 480.08290505 431.25439453 484.47753906 C432.7304594 486.21559391 434.20836838 487.95205423 435.6875 489.6875 C436.19982178 490.28868652 436.71214355 490.88987305 437.23999023 491.50927734 C441.2823296 496.22502614 445.47176965 500.78414842 449.71411133 505.31958008 C452.7383702 508.57331665 455.60000498 511.90240919 458.375 515.375 C462.60978848 520.65693617 467.19871525 525.53876878 471.84716797 530.45263672 C475.98587046 534.85049683 479.82731544 539.40290295 483.59375 544.125 C486.59742005 547.71380058 489.78474154 551.1012067 493 554.5 C497.77178383 559.54416896 502.26183993 564.69394856 506.59375 570.125 C509.59742005 573.71380058 512.78474154 577.1012067 516 580.5 C520.77178383 585.54416896 525.26183993 590.69394856 529.59375 596.125 C532.59742005 599.71380058 535.78474154 603.1012067 539 606.5 C542.99401455 610.72200269 546.87289241 614.95258153 550.5 619.5 C555.27996646 625.48838495 560.53219357 630.99684413 565.78125 636.5703125 C569.73316017 640.76808922 573.52345773 645.08290505 577.25439453 649.47753906 C578.7304594 651.21559391 580.20836838 652.95205423 581.6875 654.6875 C582.19982178 655.28868652 582.71214355 655.88987305 583.23999023 656.50927734 C587.2823296 661.22502614 591.47176965 665.78414842 595.71411133 670.31958008 C598.7383702 673.57331665 601.60000498 676.90240919 604.375 680.375 C608.60978848 685.65693617 613.19871525 690.53876878 617.84716797 695.45263672 C621.98587046 699.85049683 625.82731544 704.40290295 629.59375 709.125 C632.59742005 712.71380058 635.78474154 716.1012067 639 719.5 C643.77178383 724.54416896 648.26183993 729.69394856 652.59375 735.125 C655.59742005 738.71380058 658.78474154 742.1012067 662 745.5 C665.99401455 749.72200269 669.87289241 753.95258153 673.5 758.5 C678.27996646 764.48838495 683.53219357 769.99684413 688.78125 775.5703125 C692.73316017 779.76808922 696.52345773 784.08290505 700.25439453 788.47753906 C701.7304594 790.21559391 703.20836838 791.95205423 704.6875 793.6875 C705.19982178 794.28868652 705.71214355 794.88987305 706.23999023 795.50927734 C710.2823296 800.22502614 714.47176965 804.78414842 718.71411133 809.31958008 C721.7383702 812.57331665 724.60000498 815.90240919 727.375 819.375 C731.60978848 824.65693617 736.19871525 829.53876878 740.84716797 834.45263672 C744.98587046 838.85049683 748.82731544 843.40290295 752.59375 848.125 C755.59742005 851.71380058 758.78474154 855.1012067 762 858.5 C766.77178383 863.54416896 771.26183993 868.69394856 775.59375 874.125 C778.59742005 877.71380058 781.78474154 881.1012067 785 884.5 C789.77178383 889.54416896 794.26183993 894.69394856 798.59375 900.125 C801.59742005 903.71380058 804.78474154 907.1012067 808 910.5 C812.77178383 915.54416896 817.26183993 920.69394856 821.59375 926.125 C824.59745742 929.71384522 827.7852372 933.100686 831 936.5 C848.52313089 955.07507978 861.66172673 973.30389381 861.28100586 999.88647461 C860.79934585 1015.50043455 855.62454422 1028.67141717 846 1041 C845.236875 1042.03125 844.47375 1043.0625 843.6875 1044.125 C831.42082282 1057.24749187 814.48174616 1065.37754232 796.5390625 1066.2734375 C776.64701481 1066.85570295 761.09667062 1061.94052148 745.875 1048.75 C738.60421679 1041.89165992 731.93857367 1034.47818996 725.6875 1026.6875 C721.42826447 1021.3883075 716.82132299 1016.48243489 712.15307617 1011.54760742 C708.01427565 1007.14967811 704.17275765 1002.5971887 700.40625 997.875 C697.40257995 994.28619942 694.21525846 990.8987933 691 987.5 C687.00598545 983.27799731 683.12710759 979.04741847 679.5 974.5 C674.72003354 968.51161505 669.46780643 963.00315587 664.21875 957.4296875 C660.26683983 953.23191078 656.47654227 948.91709495 652.74560547 944.52246094 C651.2695406 942.78440609 649.79163162 941.04794577 648.3125 939.3125 C647.80017822 938.71131348 647.28785645 938.11012695 646.76000977 937.49072266 C642.7176704 932.77497386 638.52823035 928.21585158 634.28588867 923.68041992 C631.2616298 920.42668335 628.39999502 917.09759081 625.625 913.625 C621.39021152 908.34306383 616.80128475 903.46123122 612.15283203 898.54736328 C608.01412954 894.14950317 604.17268456 889.59709705 600.40625 884.875 C597.40257995 881.28619942 594.21525846 877.8987933 591 874.5 C586.22821617 869.45583104 581.73816007 864.30605144 577.40625 858.875 C574.40257995 855.28619942 571.21525846 851.8987933 568 848.5 C563.22821617 843.45583104 558.73816007 838.30605144 554.40625 832.875 C551.40257995 829.28619942 548.21525846 825.8987933 545 822.5 C540.22821617 817.45583104 535.73816007 812.30605144 531.40625 806.875 C528.40257995 803.28619942 525.21525846 799.8987933 522 796.5 C518.00598545 792.27799731 514.12710759 788.04741847 510.5 783.5 C505.72003354 777.51161505 500.46780643 772.00315587 495.21875 766.4296875 C491.26683983 762.23191078 487.47654227 757.91709495 483.74560547 753.52246094 C482.2695406 751.78440609 480.79163162 750.04794577 479.3125 748.3125 C478.80017822 747.71131348 478.28785645 747.11012695 477.76000977 746.49072266 C473.7176704 741.77497386 469.52823035 737.21585158 465.28588867 732.68041992 C462.2616298 729.42668335 459.39999502 726.09759081 456.625 722.625 C452.39021152 717.34306383 447.80128475 712.46123122 443.15283203 707.54736328 C439.01412954 703.14950317 435.17268456 698.59709705 431.40625 693.875 C428.40257995 690.28619942 425.21525846 686.8987933 422 683.5 C417.22821617 678.45583104 412.73816007 673.30605144 408.40625 667.875 C405.40257995 664.28619942 402.21525846 660.8987933 399 657.5 C394.22821617 652.45583104 389.73816007 647.30605144 385.40625 641.875 C382.40257995 638.28619942 379.21525846 634.8987933 376 631.5 C372.00598545 627.27799731 368.12710759 623.04741847 364.5 618.5 C359.72003354 612.51161505 354.46780643 607.00315587 349.21875 601.4296875 C345.26683983 597.23191078 341.47654227 592.91709495 337.74560547 588.52246094 C336.2695406 586.78440609 334.79163162 585.04794577 333.3125 583.3125 C332.80017822 582.71131348 332.28785645 582.11012695 331.76000977 581.49072266 C327.7176704 576.77497386 323.52823035 572.21585158 319.28588867 567.68041992 C316.2616298 564.42668335 313.39999502 561.09759081 310.625 557.625 C306.39021152 552.34306383 301.80128475 547.46123122 297.15283203 542.54736328 C293.01412954 538.14950317 289.17268456 533.59709705 285.40625 528.875 C282.40257995 525.28619942 279.21525846 521.8987933 276 518.5 C271.22821617 513.45583104 266.73816007 508.30605144 262.40625 502.875 C259.40257995 499.28619942 256.21525846 495.8987933 253 492.5 C248.22821617 487.45583104 243.73816007 482.30605144 239.40625 476.875 C236.40257995 473.28619942 233.21525846 469.8987933 230 466.5 C226.00598545 462.27799731 222.12710759 458.04741847 218.5 453.5 C213.72003354 447.51161505 208.46780643 442.00315587 203.21875 436.4296875 C199.26683983 432.23191078 195.47654227 427.91709495 191.74560547 423.52246094 C190.2695406 421.78440609 188.79163162 420.04794577 187.3125 418.3125 C186.80017822 417.71131348 186.28785645 417.11012695 185.76000977 416.49072266 C181.7176704 411.77497386 177.52823035 407.21585158 173.28588867 402.68041992 C170.2616298 399.42668335 167.39999502 396.09759081 164.625 392.625 C160.39021152 387.34306383 155.80128475 382.46123122 151.15283203 377.54736328 C147.01412954 373.14950317 143.17268456 368.59709705 139.40625 363.875 C136.40257995 360.28619942 133.21525846 356.8987933 130 353.5 C125.22821617 348.45583104 120.73816007 343.30605144 116.40625 337.875 C113.40257995 334.28619942 110.21525846 330.8987933 107 327.5 C102.22821617 322.45583104 97.73816007 317.30605144 93.40625 311.875 C90.40257995 308.28619942 87.21525846 304.8987933 84 301.5 C80.00598545 297.27799731 76.12710759 293.04741847 72.5 288.5 C67.72003354 282.51161505 62.46780643 277.00315587 57.21875 271.4296875 C53.26683983 267.23191078 49.47654227 262.91709495 45.74560547 258.52246094 C44.2695406 256.78440609 42.79163162 255.04794577 41.3125 253.3125 C40.80017822 252.71131348 40.28785645 252.11012695 39.76000977 251.49072266 C35.7176704 246.77497386 31.52823035 242.21585158 27.28588867 237.68041992 C24.2616298 234.42668335 21.39999502 231.09759081 18.625 227.625 C14.39021152 222.34306383 9.80128475 217.46123122 5.15283203 212.54736328 C1.01412954 208.14950317 -2.82731544 203.59709705 -6.59375 198.875 C-9.59742005 195.28619942 -12.78474154 191.8987933 -16 188.5 C-20.77178383 183.45583104 -25.26183993 178.30605144 -29.59375 172.875 C-32.59742005 169.28619942 -35.78474154 165.8987933 -39 162.5 C-43.77178383 157.45583104 -48.26183993 152.30605144 -52.59375 146.875 C-55.59742005 143.28619942 -58.78474154 139.8987933 -62 136.5 C-66.77001488 131.45770097 -71.26142852 126.31288663 -75.5859375 120.87890625 C-78.62336267 117.25660471 -81.8672062 113.86082172 -85.125 110.4375 C-99.82912622 94.86785313 -109.71794175 77.07240951 -109.47265625 55.18505859 C-108.85927926 38.58721055 -103.02830509 23.50632536 -92 11 C-91.34386719 10.24976562 -90.68773437 9.49953125 -90.01171875 8.7265625 C-66.3319105 -16.64156846 -28.26054434 -18.33584478 0 0 Z " fill="#FEFEFE" transform="translate(1785,2318)"/>
<path d="M0 0 C0.90036514 -0.0030531 1.80073028 -0.00610619 2.72837921 -0.00925181 C5.7552054 -0.01706556 8.78183268 -0.01061413 11.80865991 -0.00426924 C14.00606588 -0.00696177 16.20347092 -0.01052911 18.4008742 -0.01489371 C24.4695236 -0.02438044 30.5381132 -0.02134177 36.6067656 -0.01633817 C42.51826635 -0.01341617 48.42975489 -0.01988801 54.34125147 -0.02607924 C66.58215737 -0.03855551 78.82304913 -0.04149017 91.06396043 -0.03924429 C103.4712768 -0.03699655 115.87858117 -0.0390595 128.28589571 -0.04638922 C129.06917422 -0.04684853 129.85245274 -0.04730783 130.65946698 -0.04778106 C133.84958162 -0.04966431 137.03969624 -0.05157568 140.22981084 -0.05352344 C173.52271383 -0.07382104 206.81561009 -0.07993574 240.10851856 -0.08110766 C243.69306557 -0.08123715 247.27761259 -0.08137303 250.86215961 -0.08151448 C252.19640434 -0.08156549 252.19640434 -0.08156549 253.55760352 -0.08161754 C273.26204529 -0.08243418 292.96648577 -0.08681316 312.67092685 -0.09182617 C320.7826129 -0.09388286 328.89429896 -0.09586291 337.00598502 -0.09785867 C337.90223837 -0.09807985 338.79849173 -0.09830102 339.72190427 -0.09852891 C391.08853516 -0.11117881 442.45516521 -0.11942695 493.82179773 -0.1185118 C495.74449302 -0.11848024 497.66718832 -0.11844877 499.58988361 -0.11841738 C508.27084337 -0.11827061 516.95180312 -0.11809427 525.63276287 -0.11790961 C529.50388347 -0.11782736 533.37500407 -0.11774707 537.24612466 -0.11766698 C539.18369142 -0.11762619 541.12125817 -0.11758415 543.05882492 -0.11754086 C604.32757035 -0.11618036 665.59629266 -0.13081459 726.8650316 -0.15862143 C742.30133435 -0.16562338 757.73763713 -0.17256226 773.17394006 -0.17915022 C774.12439333 -0.17955597 775.07484659 -0.17996172 776.05410147 -0.18037976 C805.34478878 -0.19280842 834.63547419 -0.20034063 863.92616403 -0.2028662 C864.84568892 -0.2029461 865.7652138 -0.203026 866.71260307 -0.20310832 C886.89780176 -0.20481482 907.08300032 -0.20533728 927.26819906 -0.20476757 C934.4907512 -0.2045746 941.71330334 -0.20447051 948.93585548 -0.20441011 C950.73266963 -0.20439428 952.52948378 -0.20437387 954.32629793 -0.20434886 C982.96449639 -0.20399612 1011.60267507 -0.21539603 1040.24086786 -0.2326565 C1069.08356393 -0.24995185 1097.92623261 -0.25434278 1126.76893168 -0.24113385 C1130.75432009 -0.23930925 1134.73970855 -0.23762269 1138.72509706 -0.23601782 C1139.89696685 -0.23553756 1139.89696685 -0.23553756 1141.09251078 -0.2350476 C1153.46402553 -0.23034113 1165.83549291 -0.23905776 1178.20699876 -0.2533602 C1190.37138867 -0.2671424 1202.53570861 -0.26665306 1214.70009698 -0.25097592 C1221.20746693 -0.2429786 1227.71470298 -0.24175544 1234.22206481 -0.25789063 C1240.14191771 -0.2724409 1246.06146217 -0.26858432 1251.9813013 -0.25004289 C1254.10963665 -0.24659989 1256.2379961 -0.2498583 1258.36630689 -0.26064531 C1279.50128489 -0.36059109 1297.05133825 4.2473471 1312.89969957 19.25299966 C1325.53333096 32.81324803 1332.26473951 48.56202985 1332.21219957 66.94049966 C1332.22831285 68.04844888 1332.24442613 69.1563981 1332.26102769 70.29792154 C1332.27226365 89.52264751 1324.64093369 104.69891539 1311.73173082 118.58503091 C1299.11366064 130.99174313 1281.46375243 137.42628989 1263.9813059 137.38065016 C1263.08846869 137.38230094 1262.19563148 137.38395172 1261.2757386 137.38565252 C1258.26859102 137.389984 1255.26149225 137.38717415 1252.25434339 137.38442743 C1250.07345262 137.38607675 1247.89256214 137.38816288 1245.71167216 137.39064753 C1239.68422817 137.39622798 1233.65679835 137.39553925 1227.62935259 137.39386994 C1221.75932567 137.3932157 1215.88930317 137.3972464 1210.01927777 137.40113396 C1197.86319262 137.40901036 1185.7071104 137.41209616 1173.55102289 137.41257989 C1161.22875517 137.41308206 1148.90649074 137.41572669 1136.5842241 137.42098749 C1135.80646374 137.42131762 1135.02870339 137.42164775 1134.22737453 137.42198789 C1131.05975888 137.42333787 1127.89214323 137.42470053 1124.7245276 137.42608 C1087.20933339 137.44238845 1049.69413981 137.44876931 1012.17894266 137.45352787 C993.50115833 137.45591043 974.82337435 137.45961376 956.1455903 137.46356496 C896.24430625 137.47622979 836.34302222 137.48701379 776.44173686 137.49040542 C773.578373 137.49056766 770.71500915 137.49073322 767.8516453 137.49089981 C762.10905042 137.49123361 756.36645554 137.49156409 750.62386066 137.49189436 C743.90056745 137.49228127 737.17727423 137.49267087 730.45398102 137.49306543 C728.52971438 137.49317785 726.60544774 137.49328927 724.6811811 137.49339968 C662.87399014 137.49694949 601.06681081 137.51202923 539.25962429 137.53533743 C494.8513403 137.55207751 450.4430585 137.56755345 406.03477132 137.57207239 C404.66504842 137.57221262 404.66504842 137.57221262 403.26765435 137.57235568 C383.22235439 137.57437467 363.17705446 137.57553076 343.1317544 137.57588426 C335.95922621 137.57602044 328.78669801 137.57622943 321.61416982 137.57647752 C319.82979677 137.57653908 318.04542371 137.5765974 316.26105066 137.57665246 C287.82094111 137.5775725 259.38084368 137.58754339 230.94073812 137.60210995 C202.29681178 137.61672221 173.65290033 137.62177009 145.00897093 137.61369041 C141.0509748 137.61257503 137.09297864 137.61156437 133.13498247 137.61061609 C131.97116675 137.61033114 131.97116675 137.61033114 130.7838396 137.61004043 C118.49759488 137.60730657 106.21137767 137.61464942 93.92513893 137.62618946 C81.84441394 137.63732691 69.76372786 137.63776485 57.68300227 137.62681927 C51.22044024 137.6214081 44.75797393 137.62077861 38.29541969 137.63332799 C32.41624802 137.64464954 26.53725016 137.64216149 20.65808457 137.62866092 C18.5444559 137.62622534 16.43081393 137.62881645 14.31719993 137.63705739 C0.35633532 137.68791193 -12.57909109 137.29118167 -25.22530043 130.62799966 C-25.89706313 130.27954996 -26.56882582 129.93110025 -27.26094496 129.57209146 C-43.79966464 120.69384737 -55.02320972 106.54689535 -60.91182387 88.80841959 C-62.94615824 82.05599435 -63.579404 75.84781396 -63.47530043 68.81549966 C-63.46369887 67.80414957 -63.45209731 66.79279947 -63.44014418 65.7508024 C-63.05290046 48.0870786 -56.47071297 32.34470126 -43.87373793 19.86628091 C-42.95850356 19.0038981 -42.04326918 18.14151529 -41.10030043 17.25299966 C-40.30881606 16.50405435 -39.51733168 15.75510904 -38.70186293 14.98346841 C-28.01393963 5.69811312 -14.14558563 -0.07758486 0 0 Z " fill="#FEFEFE" transform="translate(1630.1003004312515,3493.747000336647)"/>
<path d="M0 0 C13.03336542 10.69634817 20.31946075 25.75145157 22.640625 42.234375 C22.93546049 46.36699125 22.99386213 50.48835636 23.02818298 54.63050842 C23.04549646 55.83581408 23.06280994 57.04111974 23.08064806 58.28294981 C23.12622801 61.61129144 23.16331745 64.93951857 23.1963913 68.26799421 C23.22654705 71.15212531 23.2636287 74.03615227 23.30063729 76.92020233 C23.4235534 86.51752082 23.52300759 96.11502179 23.61612052 105.71267015 C23.64057097 108.22881465 23.66542707 110.74495488 23.69036722 113.26109457 C23.93536755 138.08047043 24.1359337 162.90016156 24.32479471 187.72002011 C24.37970348 194.93441221 24.43558097 202.14879628 24.49204826 209.36317635 C24.50023886 210.40988553 24.50842945 211.45659472 24.51686824 212.53502237 C24.53353662 214.66491843 24.55020609 216.79481448 24.56687664 218.92471052 C24.72139991 238.68279172 24.87286416 258.44089543 25.0232765 278.19900829 C25.15919407 296.04134348 25.2987895 313.88364761 25.44017673 331.72594022 C25.58735053 350.30242531 25.73203694 368.87892834 25.87419647 387.4554525 C25.89046648 389.58053691 25.90674014 391.70562129 25.9230175 393.83070564 C25.93501352 395.39684154 25.93501352 395.39684154 25.94725187 396.99461655 C26.00214235 404.14137889 26.0585454 411.28812824 26.11560249 418.43487358 C26.28062485 439.18278817 26.4296907 459.930637 26.5407235 480.67891723 C26.59758707 491.09537155 26.67606406 501.51135559 26.7751983 511.92749421 C26.84754469 519.65920531 26.90109015 527.39091379 26.94134132 535.12285765 C26.96568957 539.67004034 26.99836872 544.21676412 27.0535289 548.76368606 C27.1043313 552.96621524 27.13087344 557.16822815 27.13955982 561.37104885 C27.14683334 562.89287392 27.16257874 564.41469009 27.18815987 565.93631752 C27.50052553 585.24249823 21.35113275 601.8582448 7.8671875 615.99609375 C7.13242188 616.73472656 6.39765625 617.47335937 5.640625 618.234375 C5.05023437 618.85957031 4.45984375 619.48476562 3.8515625 620.12890625 C-7.84675777 631.54378704 -25.78143724 637.19262658 -41.796875 637.734375 C-61.07704592 637.08562056 -77.90172355 630.15688487 -91.359375 616.234375 C-92.11605469 615.45191406 -92.87273438 614.66945313 -93.65234375 613.86328125 C-98.4918594 608.65726183 -102.78330917 603.13297213 -106.99609375 597.4140625 C-109.45904041 594.10027972 -111.987497 590.84869612 -114.546875 587.609375 C-118.7761369 582.25046581 -122.9829782 576.87490933 -127.171875 571.484375 C-127.75839844 570.72979004 -128.34492188 569.97520508 -128.94921875 569.19775391 C-131.35689886 566.09963612 -133.76387946 563.00097519 -136.17089844 559.90234375 C-142.05095131 552.333644 -147.93116676 544.76545179 -153.859375 537.234375 C-161.00521922 528.15643789 -168.08362144 519.02601894 -175.17089844 509.90234375 C-181.05095131 502.333644 -186.93116676 494.76545179 -192.859375 487.234375 C-200.00521922 478.15643789 -207.08362144 469.02601894 -214.17089844 459.90234375 C-220.05095131 452.333644 -225.93116676 444.76545179 -231.859375 437.234375 C-239.00521922 428.15643789 -246.08362144 419.02601894 -253.17089844 409.90234375 C-259.05095131 402.333644 -264.93116676 394.76545179 -270.859375 387.234375 C-278.00521922 378.15643789 -285.08362144 369.02601894 -292.17089844 359.90234375 C-298.05095131 352.333644 -303.93116676 344.76545179 -309.859375 337.234375 C-317.00521922 328.15643789 -324.08362144 319.02601894 -331.17089844 309.90234375 C-337.48641723 301.77312 -343.80830635 293.64955987 -350.17651367 285.56152344 C-354.53008099 280.02769093 -358.84840524 274.46663845 -363.16796875 268.90625 C-366.71827992 264.33823476 -370.2803731 259.7799396 -373.859375 255.234375 C-378.57761184 249.24058603 -383.27043655 243.22730255 -387.94384766 237.19848633 C-390.96951905 233.29670156 -394.00949957 229.40799615 -397.08203125 225.54296875 C-413.55377895 204.7632255 -423.76683451 185.73117981 -420.96875 158.421875 C-418.07275483 140.8973914 -408.55992401 124.96705375 -394.359375 114.234375 C-377.63984262 102.36727833 -360.3106452 98.98284684 -340.05859375 101.52294922 C-313.76919759 106.20402 -299.3609207 124.62235829 -284.109375 144.63671875 C-280.97031599 148.7532715 -277.79026411 152.83760812 -274.609375 156.921875 C-274.01890381 157.68032715 -273.42843262 158.4387793 -272.82006836 159.22021484 C-271.60913069 160.77561662 -270.39811109 162.33095461 -269.18701172 163.88623047 C-267.36950902 166.22135483 -265.55361712 168.5577221 -263.73828125 170.89453125 C-258.46100707 177.68689847 -253.17964603 184.47560945 -247.859375 191.234375 C-240.71353078 200.31231211 -233.63512856 209.44273106 -226.54785156 218.56640625 C-220.66779869 226.135106 -214.78758324 233.70329821 -208.859375 241.234375 C-201.71353078 250.31231211 -194.63512856 259.44273106 -187.54785156 268.56640625 C-181.66779869 276.135106 -175.78758324 283.70329821 -169.859375 291.234375 C-162.71353078 300.31231211 -155.63512856 309.44273106 -148.54785156 318.56640625 C-146.75616494 320.87263348 -144.96410384 323.17856912 -143.171875 325.484375 C-142.29656128 326.61093506 -142.29656128 326.61093506 -141.40356445 327.76025391 C-138.36750402 331.66455332 -135.32189177 335.56063342 -132.25024414 339.43701172 C-127.76489404 345.12514937 -123.36001521 350.86186066 -119.0234375 356.6640625 C-118.47534424 357.39616943 -117.92725098 358.12827637 -117.36254883 358.88256836 C-116.02750817 360.66601961 -114.6931292 362.44996159 -113.359375 364.234375 C-113.21644261 323.66361569 -113.39624711 283.09938157 -113.75327206 242.5300293 C-114.15102079 197.29072967 -114.50152345 152.05068003 -114.58398438 106.80955696 C-114.58650291 105.42868168 -114.58902568 104.04780641 -114.59155273 102.66693115 C-114.5934023 101.64877243 -114.5934023 101.64877243 -114.59528923 100.61004484 C-114.60464789 95.87071066 -114.62193942 91.1314471 -114.64282227 86.39215088 C-114.67005943 80.04335612 -114.68252923 73.69470349 -114.68344879 67.3458519 C-114.68610854 65.02608968 -114.69379404 62.70632669 -114.7069931 60.38660049 C-114.82432656 38.58216736 -111.85965751 20.79977638 -96.359375 4.234375 C-69.05231832 -23.34171672 -30.0519217 -22.48918644 0 0 Z " fill="#FEFEFE" transform="translate(3368.359375,1380.765625)"/>
<path d="M0 0 C1.69322388 -0.02271973 1.69322388 -0.02271973 3.4206543 -0.04589844 C21.21338264 0.17772957 37.23228207 8.59664435 49.72265625 20.9453125 C62.09462911 34.12280613 68.71090969 49.43111999 68.5625 67.5 C68.57023437 68.43779297 68.57796875 69.37558594 68.5859375 70.34179688 C68.53566415 88.42763362 61.16257057 105.75365566 48.5 118.63671875 C40.80901814 125.98539365 31.40945507 131.23400946 21.8671875 135.77734375 C17.12340179 138.15966251 12.5435789 140.80084912 7.9375 143.4375 C-1.2913426 148.7060818 -10.61262826 153.77205928 -20 158.75 C-30.13528277 164.12761899 -40.22523665 169.56970559 -50.23095703 175.18554688 C-67.00435073 184.58744913 -83.84871271 193.85191563 -100.76904297 202.98632812 C-105.70358755 205.65132895 -110.63464615 208.32264886 -115.5625 211 C-116.87214722 211.70805786 -116.87214722 211.70805786 -118.20825195 212.43041992 C-122.52481562 214.77814146 -126.77730875 217.19627121 -130.98046875 219.7421875 C-134.29891828 221.75159227 -137.61034977 223.59959482 -141.125 225.25 C-146.63308587 227.94363167 -151.9023757 230.96246677 -157.1875 234.0625 C-163.18853336 237.5811524 -169.20249423 240.87873317 -175.46875 243.90625 C-179.80158651 246.13576782 -183.98478185 248.59838687 -188.1875 251.0625 C-194.18860362 254.58103198 -200.20248551 257.87872896 -206.46875 260.90625 C-210.80159441 263.13577188 -214.98471545 265.59848893 -219.1875 268.0625 C-224.20695126 271.00396456 -229.19403224 273.90775678 -234.4375 276.4375 C-240.12374861 279.19446902 -245.57859811 282.30377511 -251.0625 285.4375 C-260.29178168 290.70534783 -269.61260286 295.77204581 -279 300.75 C-289.13528277 306.12761899 -299.22523665 311.56970559 -309.23095703 317.18554688 C-326.00435073 326.58744913 -342.84871271 335.85191563 -359.76904297 344.98632812 C-364.70358755 347.65132895 -369.63464615 350.32264886 -374.5625 353 C-375.87214722 353.70805786 -375.87214722 353.70805786 -377.20825195 354.43041992 C-381.52481562 356.77814146 -385.77730875 359.19627121 -389.98046875 361.7421875 C-393.29891828 363.75159227 -396.61034977 365.59959482 -400.125 367.25 C-405.63308587 369.94363167 -410.9023757 372.96246677 -416.1875 376.0625 C-422.18853336 379.5811524 -428.20249423 382.87873317 -434.46875 385.90625 C-438.80158651 388.13576782 -442.98478185 390.59838687 -447.1875 393.0625 C-453.18860362 396.58103198 -459.20248551 399.87872896 -465.46875 402.90625 C-469.80159441 405.13577188 -473.98471545 407.59848893 -478.1875 410.0625 C-483.20695126 413.00396456 -488.19403224 415.90775678 -493.4375 418.4375 C-499.12374367 421.19446663 -504.57862959 424.30372641 -510.0625 427.4375 C-519.33190186 432.72923046 -528.69554805 437.81426631 -538.125 442.8125 C-546.46440508 447.23450815 -554.78778813 451.66876095 -562.99145508 456.33959961 C-568.39749132 459.41493327 -573.85014774 462.40096833 -579.3125 465.375 C-580.69646973 466.12885986 -580.69646973 466.12885986 -582.10839844 466.89794922 C-586.9472909 469.53178736 -591.78925573 472.15990715 -596.6328125 474.78515625 C-597.60524902 475.31326904 -598.57768555 475.84138184 -599.57958984 476.38549805 C-601.42002995 477.38495796 -603.26142818 478.38265658 -605.10400391 479.37817383 C-609.45834415 481.7441231 -613.74934018 484.17833798 -617.98828125 486.74609375 C-621.30408436 488.75437489 -624.61291058 490.60079733 -628.125 492.25 C-633.63308587 494.94363167 -638.9023757 497.96246677 -644.1875 501.0625 C-650.18853336 504.5811524 -656.20249423 507.87873317 -662.46875 510.90625 C-666.80161449 513.13578222 -670.98454211 515.59875347 -675.1875 518.0625 C-681.25465981 521.61315731 -687.32254093 525.03364337 -693.65625 528.09375 C-696.00707978 529.23281185 -698.33362708 530.39938414 -700.65625 531.59375 C-701.35468018 531.95057861 -702.05311035 532.30740723 -702.77270508 532.67504883 C-704.12372889 533.36585801 -705.47271311 534.06067871 -706.8190918 534.76049805 C-716.39624643 539.62063796 -724.5240796 541.119685 -735.3125 541.0625 C-736.55708984 541.05677979 -737.80167969 541.05105957 -739.08398438 541.04516602 C-748.51648149 540.86211246 -756.14111273 539.78731786 -764.6875 535.5625 C-765.72261719 535.06621094 -766.75773437 534.56992188 -767.82421875 534.05859375 C-783.27825903 525.84677977 -794.4316525 512.84927539 -800.6875 496.5625 C-801.08195312 495.53769531 -801.47640625 494.51289062 -801.8828125 493.45703125 C-807.62346328 476.33543995 -805.87456762 457.686605 -798.1875 441.5 C-794.22373654 433.6445926 -789.07221247 427.59536675 -782.6875 421.5625 C-782.11821777 421.01070068 -781.54893555 420.45890137 -780.96240234 419.89038086 C-775.60760684 414.91317587 -769.77716947 411.60220393 -763.3125 408.25 C-761.15841148 407.1089082 -759.00476871 405.96697457 -756.8515625 404.82421875 C-755.2722998 403.99156494 -755.2722998 403.99156494 -753.66113281 403.14208984 C-749.63790239 401.00495513 -745.65992599 398.7922228 -741.6875 396.5625 C-734.72001983 392.66834451 -727.71038799 388.85572823 -720.6875 385.0625 C-713.06444874 380.94368443 -705.46109782 376.79441966 -697.89306641 372.57543945 C-690.79208341 368.61693567 -683.67948536 364.67963795 -676.5625 360.75 C-675.93926849 360.40580017 -675.31603699 360.06160034 -674.67391968 359.70697021 C-665.2617017 354.5108046 -655.81598926 349.37984877 -646.3515625 344.27929688 C-639.70612766 340.68633177 -633.12420227 336.99332601 -626.5625 333.25 C-617.58272626 328.13078489 -608.5047999 323.21925356 -599.375 318.375 C-589.27086055 313.01332898 -579.21831086 307.57754087 -569.23876953 301.98681641 C-563.69034806 298.88925747 -558.12575082 295.82081828 -552.5625 292.75 C-551.93872467 292.40552826 -551.31494934 292.06105652 -550.67227173 291.70614624 C-541.2686461 286.51467673 -531.83175388 281.3879939 -522.37573242 276.29248047 C-514.51546428 272.04293854 -506.74343661 267.64740678 -498.97900391 263.22583008 C-492.34365225 259.46131387 -485.63573349 255.87126038 -478.86523438 252.35717773 C-472.78887838 249.1855577 -466.82636037 245.83702739 -460.875 242.4375 C-451.79173282 237.25338384 -442.6132215 232.27513658 -433.375 227.375 C-423.27066107 222.01371238 -413.21830237 216.57753612 -403.23876953 210.98681641 C-397.69034806 207.88925747 -392.12575082 204.82081828 -386.5625 201.75 C-385.93872467 201.40552826 -385.31494934 201.06105652 -384.67227173 200.70614624 C-375.26061012 195.5102403 -365.81545032 190.37955832 -356.3515625 185.27929688 C-349.70612766 181.68633177 -343.12420227 177.99332601 -336.5625 174.25 C-327.58272626 169.13078489 -318.5047999 164.21925356 -309.375 159.375 C-299.26798208 154.01180154 -289.21247873 148.57454019 -279.22998047 142.98242188 C-273.72552407 139.90829873 -268.20653061 136.86035496 -262.6875 133.8125 C-262.06860901 133.4706366 -261.44971802 133.12877319 -260.81207275 132.77655029 C-250.8167837 127.25833471 -240.77840658 121.82503813 -230.71801758 116.42626953 C-223.31394595 112.44930332 -215.95146949 108.40549494 -208.61328125 104.30859375 C-202.27375881 100.76966355 -195.91854641 97.25913256 -189.5625 93.75 C-188.93908722 93.40570953 -188.31567444 93.06141907 -187.67337036 92.70669556 C-178.26133784 87.5106165 -168.81580962 82.37975195 -159.3515625 77.27929688 C-152.70612766 73.68633177 -146.12420227 69.99332601 -139.5625 66.25 C-130.58272626 61.13078489 -121.5047999 56.21925356 -112.375 51.375 C-102.273739 46.0148564 -92.22414295 40.5805416 -82.24755859 34.99121094 C-75.40025849 31.16988725 -68.53122094 27.38717756 -61.65942383 23.61010742 C-60.4109461 22.92370893 -59.16249219 22.23726712 -57.9140625 21.55078125 C-57.30010117 21.21324326 -56.68613983 20.87570526 -56.05357361 20.52793884 C-52.17460631 18.39184894 -48.31355566 16.22636865 -44.4609375 14.04296875 C-39.25766771 11.10661414 -34.01762776 8.26232311 -28.6875 5.5625 C-27.72142822 5.07305908 -27.72142822 5.07305908 -26.73583984 4.57373047 C-18.03623239 0.39154695 -9.50220097 0.11052807 0 0 Z " fill="#FEFEFE" transform="translate(2759.6875,1387.4375)"/>
<path d="M0 0 C4.35135193 3.31081125 8.18293334 7.09734889 12 11 C12.66644531 11.63421875 13.33289062 12.2684375 14.01953125 12.921875 C25.40468053 24.53832528 30.20351339 41.34865476 30.3125 57.1875 C30.07600683 76.72345318 22.77845238 94.12963462 9.07421875 108.1328125 C-0.65843532 117.53391803 -13.90798884 123.29442042 -25.71484375 129.609375 C-31.6951043 132.81726226 -37.60433267 136.1397488 -43.5 139.5 C-51.28312855 143.92999667 -59.1140285 148.25581616 -67 152.5 C-75.77600246 157.2253764 -84.47943758 162.06278125 -93.14672852 166.984375 C-109.08821275 176.03271978 -125.11415803 184.92794736 -141.25 193.625 C-149.94167393 198.31061147 -158.56127719 203.10938705 -167.14770508 207.98486328 C-183.08871123 217.03330263 -199.11448508 225.92812364 -215.25 234.625 C-223.94167393 239.31061147 -232.56127719 244.10938705 -241.14770508 248.98486328 C-257.08871123 258.03330263 -273.11448508 266.92812364 -289.25 275.625 C-297.94167393 280.31061147 -306.56127719 285.10938705 -315.14770508 289.98486328 C-331.08871123 299.03330263 -347.11448508 307.92812364 -363.25 316.625 C-371.94167393 321.31061147 -380.56127719 326.10938705 -389.14770508 330.98486328 C-405.08871123 340.03330263 -421.11448508 348.92812364 -437.25 357.625 C-445.94167393 362.31061147 -454.56127719 367.10938705 -463.14770508 371.98486328 C-479.08871123 381.03330263 -495.11448508 389.92812364 -511.25 398.625 C-519.94167393 403.31061147 -528.56127719 408.10938705 -537.14770508 412.98486328 C-553.08871123 422.03330263 -569.11448508 430.92812364 -585.25 439.625 C-593.94167393 444.31061147 -602.56127719 449.10938705 -611.14770508 453.98486328 C-627.08871123 463.03330263 -643.11448508 471.92812364 -659.25 480.625 C-667.94167393 485.31061147 -676.56127719 490.10938705 -685.14770508 494.98486328 C-695.93823434 501.10978718 -706.77840117 507.14329383 -717.64111328 513.13916016 C-720.96435966 514.98025507 -724.27742169 516.83873591 -727.58984375 518.69921875 C-729.6845626 519.86257939 -731.77960074 521.02536534 -733.875 522.1875 C-734.80626709 522.71601562 -735.73753418 523.24453125 -736.69702148 523.7890625 C-752.97319147 532.74655443 -771.58305684 535.8592982 -789.75 531.5 C-808.78378936 525.61980889 -823.68164139 513.89722132 -833.45703125 496.390625 C-841.83569306 479.27891689 -843.70255958 460.25080851 -838 442 C-834.32612964 432.33109225 -829.10293425 423.54003789 -822 416 C-821.3709375 415.3296875 -820.741875 414.659375 -820.09375 413.96875 C-809.28900702 403.49646065 -794.38781435 397.0719726 -781.27783203 390.02197266 C-774.40866805 386.32435064 -767.5935906 382.54406695 -760.8125 378.6875 C-752.2001814 373.79251505 -743.55196711 368.96661699 -734.875 364.1875 C-734.26735809 363.85278687 -733.65971619 363.51807373 -733.03366089 363.17321777 C-729.93302649 361.46560866 -726.83188862 359.75891642 -723.73046875 358.05273438 C-717.60963776 354.68523773 -711.49211658 351.31173801 -705.375 347.9375 C-704.77486084 347.60649292 -704.17472168 347.27548584 -703.55639648 346.93444824 C-690.35471624 339.65213948 -677.17585216 332.32892304 -664 325 C-649.56955169 316.97322163 -635.13073702 308.96227788 -620.66955566 300.99102783 C-607.42897228 293.69195849 -594.21269863 286.34941848 -581 279 C-566.56889842 270.97285826 -552.12972323 262.96100807 -537.6675415 254.99002075 C-528.93555554 250.17696499 -520.21348898 245.34649563 -511.5 240.5 C-502.17698064 235.31447986 -492.84295489 230.14947028 -483.5 225 C-469.64889395 217.3652467 -455.82157204 209.68809763 -442 202 C-427.56955169 193.97322163 -413.13073702 185.96227788 -398.66955566 177.99102783 C-385.42897228 170.69195849 -372.21269863 163.34941848 -359 156 C-344.56955169 147.97322163 -330.13073702 139.96227788 -315.66955566 131.99102783 C-302.42897228 124.69195849 -289.21269863 117.34941848 -276 110 C-261.56889842 101.97285826 -247.12972323 93.96100807 -232.6675415 85.99002075 C-223.93555554 81.17696499 -215.21348898 76.34649563 -206.5 71.5 C-197.17698064 66.31447986 -187.84295489 61.14947028 -178.5 56 C-164.64889395 48.3652467 -150.82157204 40.68809763 -137 33 C-128.00260692 27.99529893 -119.00375196 22.99325398 -110 18 C-109.390354 17.66188293 -108.78070801 17.32376587 -108.15258789 16.97540283 C-100.162887 12.54515974 -92.16472811 8.13084798 -84.15478516 3.73730469 C-81.39121632 2.21543843 -78.637539 0.67754237 -75.88671875 -0.8671875 C-51.27819152 -14.55322772 -24.3364709 -15.33763631 0 0 Z " fill="#FEFEFE" transform="translate(2659,1194)"/>
<path d="M0 0 C13.73536392 13.59898442 20.95654628 30.51997561 21.12890625 49.7265625 C21.06693471 57.42029408 20.35690715 64.42979693 17.75390625 71.7265625 C17.40199219 72.72945312 17.05007813 73.73234375 16.6875 74.765625 C13.97299872 81.84303759 10.41771427 87.7706172 5.75390625 93.7265625 C5.22023438 94.42523437 4.6865625 95.12390625 4.13671875 95.84375 C-6.77094406 109.25652197 -23.58212073 117.19107191 -40.59399414 119.1027832 C-44.08112968 119.3563252 -47.56665507 119.55186984 -51.05859375 119.7265625 C-86.6376137 121.91066726 -118.26545947 135.68215633 -142.24609375 162.7265625 C-145.84058034 167.21221049 -149.08598182 171.92858768 -152.24609375 176.7265625 C-153.20515625 178.17675781 -153.20515625 178.17675781 -154.18359375 179.65625 C-162.79441547 193.53351179 -167.2711435 208.79618375 -170.24609375 224.7265625 C-170.43816406 225.64695312 -170.63023437 226.56734375 -170.828125 227.515625 C-174.85729622 258.46869739 -166.43313652 291.6956311 -147.37109375 316.5390625 C-145.70064426 318.63497635 -143.98404252 320.6864469 -142.24609375 322.7265625 C-141.81570801 323.24057617 -141.38532227 323.75458984 -140.94189453 324.28417969 C-128.02476714 339.58166018 -111.6121478 350.58197216 -93.12109375 358.1015625 C-91.94148071 358.58423584 -91.94148071 358.58423584 -90.73803711 359.07666016 C-77.75877748 364.12318631 -64.70389557 365.41318586 -50.96362305 366.38330078 C-27.63689461 368.06733659 -9.1277489 374.72288192 6.58203125 392.828125 C18.089699 408.18548016 22.91820218 426.71969063 20.48583984 445.83300781 C17.92558158 461.55668726 11.2006348 474.60571946 -0.24609375 485.7265625 C-1.14714844 486.65855469 -1.14714844 486.65855469 -2.06640625 487.609375 C-15.9059127 500.96959119 -34.22865259 505.31255217 -52.87036133 505.05908203 C-55.99746208 504.97714079 -59.120861 504.8617077 -62.24609375 504.7265625 C-63.18485352 504.68789062 -64.12361328 504.64921875 -65.09082031 504.609375 C-124.11194261 501.76599114 -180.36468714 476.59600107 -223.76953125 436.98046875 C-225.4486158 435.4523429 -227.14190198 433.93970392 -228.84765625 432.44140625 C-233.29309589 428.52646469 -237.47636649 424.59063498 -241.2890625 420.0546875 C-242.80906709 418.24645848 -244.35125118 416.47440661 -245.921875 414.7109375 C-269.248744 388.34193633 -286.56376234 357.22745572 -297.24609375 323.7265625 C-297.6328125 322.54835938 -298.01953125 321.37015625 -298.41796875 320.15625 C-299.41760689 317.02661367 -300.3471781 313.88650617 -301.24609375 310.7265625 C-301.57222656 309.61667969 -301.89835937 308.50679687 -302.234375 307.36328125 C-311.93944822 271.8779363 -312.60262774 231.89304902 -306.24609375 195.7265625 C-306.106875 194.92476562 -305.96765625 194.12296875 -305.82421875 193.296875 C-300.49094452 163.96386672 -289.19332758 136.38564483 -274.24609375 110.7265625 C-273.81683594 109.98680176 -273.38757812 109.24704102 -272.9453125 108.48486328 C-264.28527358 93.71812231 -253.89626137 80.2533764 -242.24609375 67.7265625 C-241.09586912 66.39701554 -239.94987486 65.06379443 -238.80859375 63.7265625 C-232.13252544 56.09896261 -224.92999017 49.24406076 -217.00390625 42.9296875 C-215.22617395 41.50951609 -213.46889685 40.06316078 -211.73828125 38.5859375 C-163.8374346 -2.13710644 -55.13221514 -48.59857047 0 0 Z " fill="#FEFEFE" transform="translate(1513.24609375,3126.2734375)"/>
<path d="M0 0 C3.32516629 2.50109901 6.58752115 5.07713663 9.83984375 7.671875 C10.82082031 8.4453125 11.80179688 9.21875 12.8125 10.015625 C28.42239434 22.74524206 43.10453437 37.27131768 54.83984375 53.671875 C55.84107618 55.04041555 56.84238191 56.40890246 57.84375 57.77734375 C93.86927648 107.47259061 109.27287311 163.73491117 107.83984375 224.671875 C107.82969238 225.46029785 107.81954102 226.2487207 107.80908203 227.06103516 C107.67454632 236.75468717 106.07320457 246.24907403 104.52734375 255.796875 C104.32665283 257.04855469 104.12596191 258.30023437 103.91918945 259.58984375 C102.46651477 268.15392664 100.3931169 276.37296988 97.83984375 284.671875 C97.54537354 285.64882324 97.25090332 286.62577148 96.94750977 287.63232422 C86.94896361 320.27705327 71.32533859 350.15718285 49.83984375 376.671875 C49.39447266 377.22166016 48.94910156 377.77144531 48.49023438 378.33789062 C37.2790363 392.04749392 24.89831575 404.87062554 10.83984375 415.671875 C9.6006734 416.6616483 8.36246287 417.652624 7.125 418.64453125 C-41.15635534 456.95102229 -103.10609909 477.02984049 -164.671875 473.46875 C-182.83391962 471.18920279 -198.81564478 460.02908953 -209.9375 445.94140625 C-213.85891782 440.17299375 -216.64046744 434.16007369 -219.16015625 427.671875 C-219.52109375 426.75535156 -219.88203125 425.83882812 -220.25390625 424.89453125 C-225.09201213 409.64105856 -223.82489329 391.10032167 -217.16015625 376.671875 C-216.73734375 375.70507812 -216.31453125 374.73828125 -215.87890625 373.7421875 C-208.91444541 359.44884635 -194.7505617 345.87807053 -179.76953125 340.44140625 C-176.57984477 339.45088702 -173.38906496 338.52504194 -170.16015625 337.671875 C-169.55913086 337.49857666 -168.95810547 337.32527832 -168.33886719 337.14672852 C-165.68284097 336.56784337 -163.13394719 336.43789942 -160.41796875 336.3125 C-124.15151497 334.37144237 -94.10419178 325.03362657 -67.16015625 299.671875 C-66.16242187 298.78822266 -66.16242187 298.78822266 -65.14453125 297.88671875 C-45.94856875 280.13435506 -32.24150542 249.50154709 -31.01220703 223.54833984 C-30.91133834 220.02596491 -30.86448874 216.508136 -30.84765625 212.984375 C-30.8420166 211.86820801 -30.83637695 210.75204102 -30.83056641 209.60205078 C-30.99645972 190.50182589 -35.29854422 172.52243269 -44.16015625 155.671875 C-44.47500977 155.06569336 -44.78986328 154.45951172 -45.11425781 153.83496094 C-49.58006729 145.3349309 -54.82258486 137.9099894 -61.16015625 130.671875 C-61.77246094 129.91519531 -62.38476562 129.15851562 -63.015625 128.37890625 C-77.31119745 111.15716118 -98.11509734 100.21370105 -119.16015625 93.671875 C-119.8341748 93.45805176 -120.50819336 93.24422852 -121.20263672 93.02392578 C-131.93228625 89.7387919 -142.7516234 88.97371245 -153.92553711 88.44213867 C-174.86628419 87.34312496 -191.31697171 80.21089493 -205.84765625 64.921875 C-213.66989744 55.86963475 -218.27201494 46.23996786 -221.16015625 34.671875 C-221.35222656 33.92421875 -221.54429687 33.1765625 -221.7421875 32.40625 C-224.64838597 13.39373664 -221.44726788 -5.11800933 -210.34765625 -20.90625 C-162.83396605 -83.36376212 -50.6029323 -37.27978696 0 0 Z " fill="#FEFEFE" transform="translate(3232.16015625,3157.328125)"/>
<path d="M0 0 C1.00936369 -0.00175304 2.01872738 -0.00350607 3.05867785 -0.00531223 C6.45023836 -0.00997435 9.84175603 -0.00750617 13.23331833 -0.00507832 C15.68577667 -0.00694618 18.13823471 -0.00924678 20.59069228 -0.01194364 C25.92773991 -0.01679068 31.26477505 -0.01851548 36.60182381 -0.01748753 C44.53839601 -0.01596262 52.47495817 -0.02012432 60.41152842 -0.02536215 C75.41128689 -0.03503479 90.41104195 -0.03784636 105.41080317 -0.03841921 C116.99425842 -0.0388787 128.57771233 -0.04093675 140.16116714 -0.04411983 C143.4950815 -0.04501737 146.82899586 -0.04590719 150.16291022 -0.04679471 C150.99172469 -0.04701576 151.82053916 -0.04723681 152.67446922 -0.04746456 C175.98869326 -0.05361907 199.30291684 -0.05756509 222.61714172 -0.05712128 C223.49620406 -0.0571057 224.3752664 -0.05709012 225.280967 -0.05707407 C229.73645044 -0.05699096 234.19193389 -0.05689192 238.64741734 -0.05678936 C239.53229689 -0.05676942 240.41717644 -0.05674947 241.32887052 -0.05672892 C243.11831283 -0.05668848 244.90775514 -0.05664669 246.69719745 -0.05660353 C274.5382428 -0.05599077 302.37927597 -0.06349734 330.22031784 -0.07717609 C361.49760212 -0.09253679 392.77487841 -0.10114233 424.0521667 -0.10021287 C427.38733848 -0.10013824 430.72251026 -0.10008953 434.05768204 -0.10005856 C435.28949311 -0.10004107 435.28949311 -0.10004107 436.54618925 -0.10002324 C449.76121463 -0.09999247 462.97622944 -0.10637818 476.19125168 -0.11499082 C489.47289225 -0.12346784 502.75451735 -0.12445686 516.03615913 -0.1178815 C523.92567954 -0.1141862 531.81515295 -0.11601763 539.70466838 -0.12582384 C545.59690403 -0.1325285 551.48910291 -0.12876993 557.38133821 -0.12095062 C559.76421636 -0.11941066 562.14709959 -0.12125039 564.52997175 -0.12681069 C567.77031361 -0.1338711 571.01041397 -0.12857668 574.25074768 -0.12025452 C575.17443514 -0.1252227 576.09812259 -0.13019088 577.04980057 -0.13530961 C586.77023929 -0.0825813 595.69024032 1.45161082 604.43955612 5.75363445 C605.53397018 6.28368084 605.53397018 6.28368084 606.65049362 6.82443523 C622.93644776 14.97825996 634.36907349 28.81638346 641.26377487 45.48019695 C646.52394583 61.83286876 646.37156203 81.66412289 638.84824753 97.24386883 C630.25445122 113.92162335 617.8999409 126.73407091 600.20127487 133.54269695 C597.10560828 134.51732358 594.03642189 135.38939567 590.87705612 136.12863445 C590.19844843 136.30445891 589.51984074 136.48028337 588.82066917 136.66143584 C584.53651838 137.3413993 580.30581148 137.26820726 575.97455978 137.26006222 C574.96472623 137.26211485 573.95489267 137.26416749 572.9144581 137.26628232 C569.50923777 137.27196518 566.10405772 137.27049348 562.69883347 137.26907635 C560.2412769 137.27165925 557.78372076 137.2746722 555.3261652 137.27807975 C549.26650265 137.28531351 543.20685373 137.28785281 537.1471882 137.2884088 C529.88984476 137.28932245 522.63250947 137.29599008 515.37516954 137.30275563 C497.83307441 137.31881855 480.29098014 137.3247194 462.74887897 137.32950438 C454.44980717 137.33184019 446.15073605 137.33544285 437.85166479 137.33919975 C409.44196227 137.35203599 381.03226014 137.36275474 352.62255478 137.36620235 C350.83900124 137.36642399 349.0554477 137.36664577 347.27189416 137.36686771 C345.48403307 137.36708835 343.69617198 137.36730883 341.90831089 137.36752915 C338.321558 137.36797171 334.73480511 137.36841882 331.14805222 137.36886883 C330.25874543 137.36897822 329.36943864 137.36908761 328.45318316 137.36920032 C299.62187371 137.37283039 270.79058942 137.38874818 241.95928961 137.41205919 C211.47603473 137.43666078 180.99279422 137.45037536 150.50952911 137.45157027 C147.16249466 137.45174173 143.8154602 137.45195715 140.46842575 137.4522047 C139.64429391 137.45226047 138.82016208 137.45231624 137.97105655 137.4523737 C124.71353697 137.45352391 111.45604321 137.46454347 98.19853235 137.47909176 C84.86955998 137.49346539 71.54062068 137.49668886 58.21164268 137.48865178 C50.29586867 137.48419948 42.38020148 137.48804009 34.46444152 137.50389029 C28.54902914 137.51480577 22.63369672 137.50998662 16.71828198 137.49911842 C14.3285779 137.49715844 11.93886309 137.50025368 9.54917407 137.50896278 C-14.25340009 137.59020605 -32.88572044 134.21720205 -50.52528763 116.7497282 C-66.08367174 100.20761931 -69.86306651 81.71690682 -69.25038528 59.69797039 C-68.40888052 42.73246052 -58.27078331 27.68650065 -46.24794388 16.37863445 C-32.78695537 4.75881459 -17.60984344 -0.0387908 0 0 Z " fill="#FEFEFE" transform="translate(1636.1229438781738,3107.87136554718)"/>
<path d="M0 0 C0.50724609 0.42361816 1.01449219 0.84723633 1.53710938 1.28369141 C26.31158796 22.15673911 42.20939245 52.92363374 46 85 C46.28929806 90.10783275 46.32508011 95.19742893 46.3125 100.3125 C46.32861328 101.61123047 46.34472656 102.90996094 46.36132812 104.24804688 C46.36597086 113.58458487 45.15835876 121.9570029 43 131 C42.80656006 131.82910889 42.61312012 132.65821777 42.41381836 133.51245117 C39.71686569 144.4638288 35.4045785 154.14942087 30 164 C29.13181641 165.62421875 29.13181641 165.62421875 28.24609375 167.28125 C24.22438183 174.52219768 19.41218771 180.74848906 14 187 C13.39027344 187.7321875 12.78054688 188.464375 12.15234375 189.21875 C1.75296885 201.53691617 -11.53409349 210.41272932 -25.6875 217.875 C-26.54174561 218.32713867 -27.39599121 218.77927734 -28.27612305 219.24511719 C-37.22073886 223.84212008 -46.34813224 227.12930922 -56.1875 229.1875 C-57.3002832 229.4340332 -57.3002832 229.4340332 -58.43554688 229.68554688 C-91.81805311 236.8994393 -127.19083691 229.98558889 -155.89355469 211.80029297 C-185.81724727 192.20683446 -206.60647975 162.29929592 -214.59082031 127.41894531 C-221.64706215 92.38058956 -214.26938069 56.59714039 -194.671875 26.82421875 C-190.56740025 20.82013989 -185.91518547 15.34951703 -181 10 C-180.21109375 9.12859375 -179.4221875 8.2571875 -178.609375 7.359375 C-131.62065923 -42.11880915 -51.08114661 -43.20723929 0 0 Z " fill="#5B318C" transform="translate(1689,1870)"/>
<path d="M0 0 C26.2907909 22.80450469 44.58110921 53.73295344 47.3046875 88.90234375 C48.91787224 130.12421036 37.51407177 163.71253966 9.92578125 194.5625 C-0.39397101 205.3383739 -12.5398062 213.07991176 -25.6953125 219.90234375 C-27.07783203 220.62550781 -27.07783203 220.62550781 -28.48828125 221.36328125 C-34.18460152 224.1363736 -40.11681657 226.13878966 -46.1328125 228.08984375 C-46.8956958 228.34016357 -47.6585791 228.5904834 -48.44458008 228.84838867 C-59.78296617 232.39290793 -70.79516226 233.22434162 -82.6328125 233.15234375 C-84.53450195 233.16394531 -84.53450195 233.16394531 -86.47460938 233.17578125 C-94.7288907 233.15885807 -102.58572394 232.42885454 -110.6953125 230.90234375 C-111.42919189 230.76699219 -112.16307129 230.63164063 -112.91918945 230.4921875 C-145.2265937 224.09255873 -174.5441724 202.69465886 -193.12890625 175.8515625 C-213.18422847 145.65904916 -219.82199151 110.65237917 -212.828125 75.1953125 C-208.12354197 52.72714733 -198.72334125 33.26740846 -183.6953125 15.90234375 C-182.99921875 15.07347656 -182.303125 14.24460937 -181.5859375 13.390625 C-164.85119161 -5.98488752 -140.62639496 -20.40405264 -115.6953125 -26.09765625 C-114.60863281 -26.39414062 -113.52195312 -26.690625 -112.40234375 -26.99609375 C-73.65221361 -36.20822938 -30.34181315 -25.4461194 0 0 Z " fill="#5B318C" transform="translate(3113.6953125,1042.09765625)"/>
</svg>
